<?xml version="1.0" encoding="utf-8"?>
<!-- Generator: Adobe Illustrator 23.0.0, SVG Export Plug-In . SVG Version: 6.00 Build 0)  -->
<svg version="1.1" id="Layer_1" xmlns="http://www.w3.org/2000/svg" xmlns:xlink="http://www.w3.org/1999/xlink" x="0px" y="0px"
	 viewBox="0 0 393 349" style="enable-background:new 0 0 393 349;" xml:space="preserve">
<style type="text/css">
	.st0{fill:#EAF0F4;}
	.st1{fill:#C7D7E2;}
	.st2{fill:#606BF1;}
	.st3{fill:#7886EF;}
	.st4{fill:#EC827D;}
	.st5{fill:#112B46;}
	.st6{fill:#F9F8F7;}
	.st7{fill:#56548C;}
	.st8{fill:#FFC8AF;}
	.st9{fill:#EDAD94;}
	.st10{fill:#414042;}
	.st11{fill:#845E40;}
	.st12{fill:#BD884C;}
	.st13{fill:#878CF0;}
	.st14{fill:#FBD15B;}
	.st15{opacity:0.2;fill:#FBD15B;}
	.st16{fill:#FFC536;}
	.st17{fill:#F9B212;}
	.st18{fill:#F9FBFC;}
	.st19{fill:#FF8578;}
	.st20{fill:#EAEEEF;}
	.st21{fill:#B1B2F3;}
	.st22{fill:#BEE1F4;}
	.st23{fill:#4E60E5;}
	.st24{fill:#EDBA3A;}
</style>
<g>
	<path class="st0" d="M291.79,231.79H22.51c-5.5,0-10-4.5-10-10v-94.05c0-5.5,4.5-10,10-10h269.28c5.5,0,10,4.5,10,10v94.05
		C301.79,227.29,297.29,231.79,291.79,231.79z"/>
	<path class="st0" d="M364.3,278.83H103.34c-5.5,0-10-4.5-10-10v-77.44c0-5.5,4.5-10,10-10H364.3c5.5,0,10,4.5,10,10v77.44
		C374.3,274.33,369.8,278.83,364.3,278.83z"/>
	<path class="st1" d="M154.23,317.47H36.03c-1.1,0-2-0.9-2-2l0,0c0-1.1,0.9-2,2-2h118.19c1.1,0,2,0.9,2,2l0,0
		C156.23,316.57,155.33,317.47,154.23,317.47z"/>
	<path class="st1" d="M264.36,317.47h-93.8c-1.1,0-2-0.9-2-2l0,0c0-1.1,0.9-2,2-2h93.8c1.1,0,2,0.9,2,2l0,0
		C266.36,316.57,265.46,317.47,264.36,317.47z"/>
	<path class="st1" d="M356.32,317.47h-58.1c-1.1,0-2-0.9-2-2l0,0c0-1.1,0.9-2,2-2h58.1c1.1,0,2,0.9,2,2l0,0
		C358.32,316.57,357.42,317.47,356.32,317.47z"/>
	<path class="st2" d="M290.65,85.91c-0.34-5.6-1.95-10.99-4.62-15.79l4.58-2.55c-2.3-4.12-5.28-7.85-8.84-11.02l-3.49,3.92
		c-4.03-3.58-8.88-6.35-14.41-7.93l1.43-5.02l-0.07-0.02c-3.83-1.08-7.71-1.6-11.51-1.6c-0.83,0-1.65,0.02-2.48,0.07l0.31,5.23
		c-5.6,0.33-10.99,1.94-15.79,4.61l-2.55-4.58c-4.12,2.29-7.86,5.27-11.03,8.83l3.92,3.49c-3.58,4.03-6.36,8.88-7.94,14.41
		l-5.02-1.43l-0.03,0.1c-1.09,3.83-1.61,7.71-1.6,11.51c0,0.82,0.02,1.63,0.07,2.44l5.23-0.31c0.33,5.61,1.93,10.99,4.6,15.79
		l-4.58,2.54c2.29,4.12,5.26,7.86,8.83,11.04l3.49-3.92c4.02,3.59,8.88,6.36,14.4,7.95l-1.44,5.02l0.13,0.04
		c3.83,1.09,7.71,1.6,11.51,1.6c0.85,0,1.7-0.03,2.54-0.08l-0.32-5.23c5.6-0.34,10.98-1.96,15.78-4.64l2.56,4.58
		c4.12-2.3,7.85-5.28,11.02-8.85l-3.93-3.48c3.58-4.03,6.34-8.89,7.92-14.42l5.02,1.43l0.01-0.03c1.09-3.83,1.61-7.71,1.6-11.51
		c0-0.84-0.03-1.68-0.08-2.51L290.65,85.91z M244.57,120.53L244.57,120.53l0.26-0.91L244.57,120.53z M275.26,94.21
		c-2.78,9.85-11.76,16.28-21.51,16.29c-2.01,0-4.06-0.27-6.1-0.85c-9.85-2.78-16.28-11.76-16.29-21.51c0-2.01,0.27-4.06,0.85-6.1
		c2.78-9.85,11.76-16.28,21.51-16.29c2.01,0,4.06,0.27,6.1,0.85c9.85,2.78,16.28,11.76,16.29,21.51
		C276.11,90.12,275.84,92.17,275.26,94.21z"/>
	<polygon class="st3" points="357.17,52 357.17,52 357.17,52 	"/>
	<path class="st3" d="M348.92,61.23l-2.77,0.54c-0.42-2.15-1.17-4.21-2.22-6.11l2.46-1.36c-1.78-3.22-4.31-6.02-7.43-8.14
		l-1.57,2.32c-1.77-1.19-3.74-2.14-5.89-2.77l0.77-2.68L332.15,43c-2.15-0.61-4.31-0.9-6.45-0.9c-1.5,0-2.99,0.14-4.44,0.42
		l0.53,2.77c-2.16,0.41-4.22,1.16-6.12,2.2l-1.36-2.46c-3.22,1.77-6.03,4.29-8.16,7.41l2.32,1.58c-1.2,1.76-2.15,3.73-2.78,5.89
		l-2.68-0.78l-0.05,0.18c-0.61,2.14-0.9,4.31-0.9,6.45c0,1.48,0.14,2.95,0.41,4.38l2.77-0.52c0.41,2.16,1.15,4.22,2.19,6.13
		l-2.47,1.35h0c1.76,3.23,4.28,6.05,7.39,8.18l1.58-2.31c1.76,1.2,3.73,2.15,5.88,2.79l-0.79,2.69h0l0.25,0.07
		c2.15,0.61,4.31,0.9,6.45,0.9c1.55,0,3.08-0.15,4.57-0.45l-0.55-2.77c2.15-0.43,4.21-1.18,6.11-2.24l1.37,2.46
		c3.21-1.79,6.01-4.33,8.11-7.46L343,77.37c1.19-1.77,2.14-3.74,2.76-5.9l2.68,0.77l0.02-0.06c0.61-2.15,0.9-4.31,0.9-6.45
		C349.35,64.21,349.21,62.7,348.92,61.23z M325.72,79.82c-1.27,0-2.55-0.17-3.84-0.54c-6.2-1.75-10.24-7.4-10.24-13.53
		c0-1.27,0.17-2.55,0.54-3.84c1.75-6.2,7.4-10.24,13.53-10.24c1.27,0,2.55,0.17,3.84,0.54c6.2,1.75,10.24,7.4,10.24,13.53
		c0,1.27-0.17,2.55-0.54,3.84C337.5,75.77,331.84,79.82,325.72,79.82z"/>
	<g>
		<path class="st4" d="M201.24,69.29c-3.06,0-6.17,0.17-9.25,0.51c-36.88,4.07-66.95,33.73-71.49,70.53
			c-3.66,29.7,9.05,58.96,33.17,76.36c14.99,10.81,23.93,28.24,23.93,46.63v7.21h47.26v-7.2c0-18.4,8.99-35.6,24.67-47.18
			c20.71-15.3,33.07-39.78,33.07-65.49C282.61,105.79,246.11,69.29,201.24,69.29z"/>
		<path class="st5" d="M215.54,310.09h-28.6c-3.21,0-5.8-2.6-5.8-5.8v-24.36h40.21v24.36C221.34,307.49,218.74,310.09,215.54,310.09
			z"/>
		<path class="st5" d="M208.14,315.55h-13.81c-2.4,0-4.34-1.94-4.34-4.34v-25.82h22.5v25.82
			C212.48,313.6,210.54,315.55,208.14,315.55z"/>
		<g>
			<path class="st6" d="M201.24,268.31c-0.96,0-1.81-0.63-2.08-1.56l-32.08-109.06c-0.25-0.86,0.05-1.78,0.75-2.33
				s1.68-0.6,2.44-0.14l30.96,18.58l30.96-18.58c0.77-0.46,1.74-0.4,2.44,0.14c0.71,0.55,1.01,1.47,0.75,2.33l-32.08,109.06
				C203.05,267.68,202.2,268.31,201.24,268.31z M172.81,161.8l28.43,96.65l28.42-96.65l-27.31,16.38c-0.69,0.41-1.55,0.41-2.23,0
				L172.81,161.8z"/>
		</g>
		<path class="st5" d="M219.49,304.63h-36.51c-4.09,0-7.41-3.32-7.41-7.41v-31.09h51.32v31.09
			C226.9,301.32,223.58,304.63,219.49,304.63z"/>
		<rect x="173.82" y="278.97" class="st7" width="54.83" height="6.42"/>
		<rect x="173.82" y="266.14" class="st7" width="54.83" height="6.42"/>
		<rect x="173.82" y="291.8" class="st7" width="54.83" height="6.42"/>
	</g>
	<g>
		<path class="st5" d="M324.96,206.49c0.61,5.01,1.25,16.37,1.25,16.37l-13.04,0.03l0.95-17.78l4.76-2.46L324.96,206.49z"/>
		<path class="st8" d="M292.47,220.54c-0.19,1.85,10.43,3.96,15,4.53c4.57,0.56,8.28,0.19,8.52-2.06c0.24-2.25-3.31-3.39-7.9-3.78
			C303.5,218.82,292.67,218.69,292.47,220.54z"/>
		<path class="st8" d="M313.55,282.74c-2.57,0.1-4.54-14.13-4.9-20.24c-0.36-6.1,0.49-10.98,3.63-11.1
			c3.14-0.13,4.39,4.66,4.52,10.78C316.93,268.28,316.12,282.63,313.55,282.74z"/>
		<path class="st8" d="M314.78,313.22c-2.28,0.09-3.73-20.17-3.91-24.7c-0.18-4.53-0.03-9.33,2.53-9.44c2.56-0.1,3.1,4.67,3.29,9.2
			C316.87,292.82,317.06,313.13,314.78,313.22z"/>
		<path class="st8" d="M325.56,282.73c-2.57,0.24-5.25-13.88-5.93-19.96c-0.67-6.08-0.07-10.99,3.06-11.28
			c3.13-0.29,4.62,4.43,5.06,10.53C328.2,268.12,328.13,282.49,325.56,282.73z"/>
		<path class="st8" d="M327.96,313.12c-2.28,0.21-4.37-19.97-4.78-24.48c-0.41-4.52-0.5-9.32,2.05-9.55
			c2.55-0.23,3.34,4.5,3.75,9.02C329.39,292.63,330.23,312.91,327.96,313.12z"/>
		<path class="st8" d="M326.87,256.08h-18.11c0,0,1.57-8.05,1.65-10.95c0.07-2.39,1.02-9.97,1.02-9.97s-2.18-3.29-2.17-5.01
			c0.02-2.6,4.41-9.7,4.41-9.7l6.36-1.96l4.32,1.03c2.7,0.52,2.78,3.08,2.78,5.83c0,8.31-3.49,13.95-3.17,18.71
			C324.17,247.11,326.87,256.08,326.87,256.08z"/>
		<path class="st8" d="M330.03,242.94c-1.81,0.43-5.26-9.84-6.41-14.3c-1.14-4.47-1.25-8.19,0.96-8.71
			c2.21-0.52,3.78,2.85,4.76,7.36C330.33,231.79,331.84,242.51,330.03,242.94z"/>
		<g>
			<path class="st8" d="M322.1,213.15v6.49c0,0-1.16,0.69-3.88,0.69c-1.47,0-1.79-0.69-1.79-0.69v-2.03L322.1,213.15z"/>
			<g>
				<path class="st9" d="M316.53,209.03c-0.56,0.15-0.78,2.03-0.68,2.02c0.1-0.01,0.45-1.5,0.95-1.73
					C317.29,209.09,316.53,209.03,316.53,209.03z"/>
				<path class="st9" d="M314.25,209.03c0.38,0.29,0.24,1.82,0.23,1.94c-0.01,0.12-0.25-1.73-0.25-1.73L314.25,209.03z"/>
				<g>
					<path class="st10" d="M318.03,210.57c0,0.26-0.21,0.47-0.47,0.47s-0.47-0.21-0.47-0.47c0-0.26,0.21-0.47,0.47-0.47
						S318.03,210.31,318.03,210.57z"/>
					<path class="st10" d="M318.54,210.19c-0.25-0.13-0.59-0.27-0.98-0.27s-0.74,0.14-0.98,0.27H318.54z"/>
					<path class="st10" d="M314.12,210.57c0,0.26-0.21,0.47-0.47,0.47c-0.26,0-0.47-0.21-0.47-0.47c0-0.26,0.21-0.47,0.47-0.47
						C313.91,210.1,314.12,210.31,314.12,210.57z"/>
					<path class="st10" d="M314.33,210.19c-0.17-0.13-0.41-0.27-0.69-0.27c-0.27,0-0.51,0.14-0.69,0.27H314.33z"/>
				</g>
				<path class="st8" d="M315.05,213.16c0.47,0,0.86-0.04,0.86,0.09c0,0.13-0.38,0.29-0.86,0.29c-0.47,0-0.86-0.16-0.86-0.29
					C314.19,213.12,314.58,213.16,315.05,213.16z"/>
				<path class="st9" d="M315.05,215.1c0.35,0,0.63-0.03,0.63,0.07c0,0.1-0.28,0.31-0.63,0.31c-0.35,0-0.63-0.22-0.63-0.31
					C314.42,215.07,314.7,215.1,315.05,215.1z"/>
				<g>
					<path class="st9" d="M316.86,214.29c0.05,0,0.09,0.03,0.1,0.08c0.02,0.06-0.02,0.12-0.07,0.13c-0.03,0.01-0.82,0.23-1.62,0.23
						c-0.79,0-1.61-0.22-1.64-0.23c-0.06-0.02-0.09-0.08-0.08-0.13c0.02-0.06,0.07-0.09,0.13-0.08c0.01,0,0.82,0.22,1.58,0.22
						c0.76,0,1.55-0.22,1.56-0.22C316.84,214.29,316.85,214.29,316.86,214.29z"/>
				</g>
				<g>
					<path class="st11" d="M316.52,209.25c-0.2-0.1,0.1-0.33,0.49-0.31c0.39,0.02,1.45-0.05,1.96,0.44c0,0-0.05,0.04-0.29-0.05
						C318.44,209.24,316.67,209.33,316.52,209.25z"/>
					<path class="st11" d="M314.29,209.25c0.14-0.1-0.07-0.33-0.34-0.31c-0.27,0.02-0.98-0.05-1.33,0.44c0,0,0.04,0.04,0.2-0.05
						C312.98,209.24,314.19,209.33,314.29,209.25z"/>
				</g>
			</g>
			<path class="st8" d="M322.22,209.73c-0.01,0.2-0.02,0.39-0.03,0.57c0,0.06,0.01,0.13,0.01,0.2c0.14,3.28-0.21,5.82-3.94,7.13
				c-0.68,0.08-3.05,0.6-3.95-0.39c-1.05-1.16-1.88-4.16-1.88-5.2V212c0.01-1.02,0.16-1.3,0.16-1.89c0-0.46-0.25-1.89-0.25-2.52
				c-0.01-1.02,0.38-2.27,0.84-3.16c0.85-1.67,2.33-2.67,4.61-2.67C323.03,201.76,322.36,206.21,322.22,209.73z"/>
			<path class="st5" d="M318.97,204.73c-2.19,1.9-6.13,1.85-6.55,4.14l0.15,1.02c0,0-0.56-1.27-0.69-1.71
				c-0.29-0.96,0.32-2.98,1.45-4.42c2.17-2.76,6.74-3.36,8.64-0.78c0,0,2.65-0.52,2.98,3.52c0.23,2.79-2.86,12.48-2.86,12.48
				s-0.71-0.63-0.95-1.64c-0.92-3.89-1.83-10.69-2.31-13.35"/>
			<path class="st12" d="M320.39,207.03c0-0.01,0-0.02,0-0.03"/>
			<path class="st9" d="M317.08,217.79c1.06-0.15,2.91-0.77,3.79-1.76c0,0-0.2,0.96-1.14,1.46
				C318.78,217.99,317.08,217.79,317.08,217.79z"/>
		</g>
		<path class="st8" d="M316.36,312.29l0.11,2.35c0,0.33-0.27,0.6-0.61,0.6h-6.34c-0.58,0-1.36-1.05-0.87-1.35
			c1.06-0.65,2.95-1.58,4.04-2.07c0.1-0.05,1.02-19.29,1.97-19.3C315.54,292.51,316.36,312.29,316.36,312.29z"/>
		<path class="st8" d="M329.39,312.15c0,0,0,0.12,0,0.29v1.93c0,0.2-1.07,1.08-1.51,1.27c-1.6,0.68-4.07,0.26-4.19-0.29
			c-0.12-0.55,1.55-2.53,1.55-2.54c0.44-0.55,0.69-1.05,0.69-1.05s0.86-19.27,1.77-19.24C328.68,292.55,329.39,312.15,329.39,312.15
			z"/>
		<path class="st5" d="M308.51,315.24h7.79c0.1,0,0.18-0.08,0.18-0.18v-1.22c-1.56,0.01-5.14,0.06-5.35,0.01
			c-0.23-0.05-0.94-0.84-1.06-1.04c-0.61,0.33-1.51,0.86-1.97,1.2C307.57,314.41,307.85,315.24,308.51,315.24z"/>
		<path class="st5" d="M327.88,315.64c0.45-0.19,1.51-1.07,1.51-1.27v-1.01l-1.51,0.91c-1.07-1.14-3.06-1.46-3.56-0.47l0,0
			c-0.41,0.61-0.71,1.21-0.63,1.55C323.81,315.9,326.29,316.32,327.88,315.64z"/>
		<path class="st7" d="M327.52,257.19c0,0,1.32,13.48,1.41,22.35c0,0,0.93,5.89,1.19,12.27c0.26,6.39-0.63,18.44-0.63,18.44h-3.91
			l-6.61-50.11h-1.75v50.11h-4.52c0,0-2.67-20.14-4.35-53.07H327.52z"/>
		<path class="st13" d="M308.01,257.72l2.98-22.62c-0.97-1.26-1.94-4.08-1.94-5.35c0-0.63,0.51-2.04,1.46-4.18
			c0.28-0.64,0.22-2.68,0.22-2.68s0.05-1.29,1.17-2.41c0.87-0.87,4.53-0.85,4.53-0.85c-2.11,0.61-2.62,3.54-2.31,3.76
			c0.31,0.23,4.39,0.16,5.14,0c0.75-0.16,2.13-3.82,4.12-4.12c0,0,1.35-0.18,2.82,0.74c1.48,0.92,2.07,3.52,2.07,3.52
			s-5.45-0.14-5.11,3.06c0.01,0.08,0.02,0.16,0.03,0.24c0.43,3.26,2.71,9.03,2.71,9.03s-0.91,3.46-0.92,7.29
			c-0.01,3.83,3.29,14.55,3.29,14.55H308.01z"/>
		<g>
			<g>
				<g>
					<path class="st8" d="M279.66,213.01c-0.76,1.46,7.79,6.4,10.27,7.68c2.47,1.28,5.2,2.41,6.05,0.77
						c0.85-1.64-1.65-3.21-4.12-4.49C289.38,215.68,280.42,211.55,279.66,213.01z"/>
					<g>
						<path class="st8" d="M281.3,214.37c-1.27,1.48-3.48-0.99-4.33-1.81c-1.1-1.05-0.13-2.92,0.43-3.42
							c0.56-0.5,1.65,1.69,1.87,1.68c0.22,0-0.91-1.81-0.34-2.22c0.57-0.41,2.38,1.8,2.76,2.95
							C282.07,212.7,282.09,213.45,281.3,214.37z"/>
						<path class="st8" d="M277.59,209.08c0.36-0.02,0.94,0.48,1.18,0.84c0.24,0.36-0.03,1.14-0.36,1.8c-0.33,0.66-1.81,0-1.81,0
							l0.24-1.38L277.59,209.08z"/>
					</g>
				</g>
				<polygon class="st14" points="243.45,182.62 264.01,185.76 246.59,203.18 				"/>
			</g>
			<polygon class="st14" points="306.94,236.94 259.8,189.78 250.62,198.96 300.3,248.66 300.3,248.68 300.34,248.7 324.6,254.6 
				370.26,266.02 372.78,255.7 373.34,253.4 			"/>
			<polygon class="st15" points="250.63,199.01 298.05,246.42 300.41,248.79 307.37,250.22 370.27,266.04 370.83,263.74 
				301.71,246.91 252.11,197.54 			"/>
		</g>
		<path class="st8" d="M308.85,246.79c-0.39-1.6,11.26-4.94,14.58-5.76c3.32-0.82,6.89-1.44,7.33,0.35c0.44,1.79-3,2.9-6.32,3.72
			C321.12,245.93,309.25,248.39,308.85,246.79z"/>
		<path class="st8" d="M311.88,245.96c0.61,1.85-2.94,2.86-4.1,3.06c-1.89,0.32-2.58-1.82-2.71-2.56c-0.13-0.73,2.62-0.41,2.73-0.61
			c0.11-0.19-1.96-0.18-1.84-0.88c0.07-0.44,2.64-0.84,3.82-0.57C310.95,244.68,311.5,244.81,311.88,245.96z"/>
	</g>
	<g>
		<path class="st8" d="M79.29,250.7c0.39-1.74-12.33-5.13-15.95-5.95c-3.62-0.82-7.51-1.42-7.95,0.54
			c-0.44,1.96,3.32,3.09,6.95,3.91C65.95,250.02,78.9,252.45,79.29,250.7z"/>
		<path class="st8" d="M75.99,249.87c-0.62,2.02,3.07,2.7,4.34,2.89c2.06,0.31,4.27-1.82,4.4-2.62c0.13-0.8-4.24-0.61-4.37-0.82
			c-0.13-0.21,2.25,0.13,2.3-0.64c0.04-0.76-3.03-1.14-4.31-0.82C77.07,248.19,76.37,248.6,75.99,249.87z"/>
		<path class="st8" d="M57.59,246.25c1.47,1.35,10.11-6.49,13.53-10.09c3.42-3.6,5.47-7.05,3.67-8.7c-1.8-1.65-5.05,0.7-8.34,4.42
			C63.17,235.6,56.12,244.9,57.59,246.25z"/>
		<path class="st16" d="M74.96,227.4c-1.59-0.83-3.74,0.43-5.9,3.83c-2.15,3.4-6.08,11.64-6.08,11.64l5.8,3.02
			c0,0,5.5-9.48,6.94-12.1C77.16,231.18,77.12,228.53,74.96,227.4z"/>
		<path class="st8" d="M54.48,310.97l-0.12,2.48c0,0.35,0.29,0.64,0.64,0.64h6.69c0.61,0,0.87-0.77,0.38-1.13
			c-1.01-0.75-2.42-1.63-3.73-1.87c-0.12-0.02-0.11-10.59-1.12-10.6C56.3,300.48,54.48,310.97,54.48,310.97z"/>
		<path class="st8" d="M66.73,280.99c2.51-1.24-3.02-15.84-5.85-21.84c-2.83-6.01-6.18-10.21-9.24-8.7s-1.76,6.73,1.29,12.62
			C55.99,268.96,64.22,282.23,66.73,280.99z"/>
		<path class="st8" d="M55.22,311.21c2.38,0.7,9.21-20.14,10.59-24.87c1.39-4.73,2.49-9.83-0.18-10.61c-2.67-0.78-4.5,4.1-5.89,8.83
			C58.36,289.29,52.84,310.51,55.22,311.21z"/>
		<path class="st8" d="M54.02,281.97c2.66-0.87-0.73-16.1-2.67-22.46c-1.94-6.35-4.65-10.99-7.9-9.93
			c-3.25,1.06-2.7,6.41-0.52,12.68C45.1,268.53,51.36,282.84,54.02,281.97z"/>
		<path class="st8" d="M41.38,311.62c2.33,0.84,10.04-19.66,11.72-24.29c1.68-4.63,3.09-9.65,0.47-10.6
			c-2.62-0.95-4.74,3.82-6.42,8.45C45.48,289.81,39.05,310.78,41.38,311.62z"/>
		<g>
			<path class="st8" d="M40.83,311.29c0,0,0,0.12,0,0.31v2.03c0,0.22,0.5,1.13,0.97,1.33c1.69,0.72,4.92,0.29,5.05-0.29
				c0.13-0.58-0.78-1.86-1.5-2.77c0,0-0.01,0-0.01-0.01c-0.47-0.58-0.86-1.01-0.86-1.01s0.83-14.5-0.13-14.47
				C43.32,296.45,40.83,311.29,40.83,311.29z"/>
			<path class="st7" d="M40.83,311.6v2.03c0,0.22,0.5,1.13,0.97,1.33c1.69,0.72,4.92,0.29,5.05-0.29c0.13-0.58-0.78-1.86-1.5-2.77
				c0,0-0.01,0-0.01-0.01c-0.35-0.3-2.13-0.13-2.43,0.01c-0.3,0.15-1,0.57-1.14,0.55C41.63,312.43,40.83,311.6,40.83,311.6z"/>
		</g>
		<path class="st8" d="M41.24,252.91l16.37,8.54l14.41-25.98l2.66-8.07l-6.66-6.58l-5.03-1.52c-2.86-0.86-5.92,0.49-7.21,3.19
			l-8.06,19.51L41.24,252.91z"/>
		<g>
			<path class="st8" d="M68.14,216.41l-2.76,5.29c0,0,0.77,1.25,3.39,2.62c1.41,0.74,2.08,0.23,2.08,0.23l1.02-1.96L68.14,216.41z"
				/>
			<g>
				<path class="st9" d="M76.86,214.89c0.46,0.43-0.26,2.33-0.35,2.27c-0.09-0.06,0.31-1.66-0.05-2.13
					C76.11,214.57,76.86,214.89,76.86,214.89z"/>
				<path class="st9" d="M78.84,216c-0.48,0.21-0.94,1.64-0.99,1.76c-0.05,0.12,0.98-1.51,0.98-1.51L78.84,216z"/>
				<g>
					<path class="st10" d="M74.55,213.77l-0.11,0.21c0,0,2.25,1.18,2.28,1.18c0.02-0.01,0.19-0.16,0.14-0.27
						C76.63,214.29,74.55,213.77,74.55,213.77z"/>
					<path class="st10" d="M80.46,216.85l-0.12,0.23c0,0-1.58-0.83-1.58-0.85c-0.02-0.01,0.05-0.23,0.14-0.27
						C79.41,215.74,80.46,216.85,80.46,216.85z"/>
					<path class="st10" d="M74.66,215.62c-0.13,0.25-0.03,0.56,0.22,0.69c0.25,0.13,0.56,0.03,0.69-0.22
						c0.13-0.25,0.03-0.56-0.22-0.69C75.1,215.27,74.79,215.37,74.66,215.62z"/>
					<path class="st10" d="M74.36,215c0.3,0,0.7,0.03,1.08,0.23c0.38,0.2,0.64,0.51,0.81,0.75L74.36,215z"/>
					<path class="st10" d="M78.4,217.57c-0.13,0.25-0.03,0.56,0.22,0.69c0.25,0.13,0.56,0.03,0.69-0.22
						c0.13-0.25,0.03-0.56-0.22-0.69C78.84,217.22,78.53,217.32,78.4,217.57z"/>
					<path class="st10" d="M78.39,217.1c0.23-0.04,0.53-0.06,0.79,0.08c0.26,0.14,0.42,0.39,0.52,0.61L78.39,217.1z"/>
				</g>
				<path class="st8" d="M76.32,219.4c-0.45-0.24-0.8-0.47-0.87-0.34c-0.06,0.12,0.23,0.47,0.68,0.7c0.45,0.24,0.9,0.28,0.97,0.16
					C77.16,219.79,76.77,219.63,76.32,219.4z"/>
				<path class="st9" d="M75.35,221.26c-0.33-0.17-0.59-0.34-0.64-0.25c-0.05,0.09,0.11,0.44,0.45,0.61
					c0.33,0.17,0.71,0.11,0.76,0.02C75.96,221.55,75.68,221.43,75.35,221.26z"/>
				<g>
					<path class="st9" d="M77.26,221.32c0.05,0.02,0.07,0.07,0.06,0.13c-0.01,0.06-0.07,0.1-0.14,0.09
						c-0.04-0.01-0.9-0.19-1.66-0.59c-0.76-0.4-1.43-1.02-1.46-1.04c-0.05-0.04-0.05-0.12-0.01-0.17c0.04-0.05,0.12-0.05,0.17-0.01
						c0.01,0.01,0.68,0.63,1.41,1.01c0.73,0.38,1.59,0.56,1.6,0.56C77.24,221.31,77.25,221.32,77.26,221.32z"/>
				</g>
			</g>
			<path class="st8" d="M69.59,212.14c-0.09,0.2-0.17,0.38-0.25,0.56c-0.03,0.06-0.07,0.12-0.11,0.19
				c-1.77,3.07-1.51,7.49,1.29,9.53c0,0,0.02,0.02,0.06,0.05c0.02,0.01,0.06,0.04,0.1,0.06c0.61,0.42,2.86,1.84,4.21,1.34
				c1.59-0.59,3.55-2.16,4.28-3.55c0.73-1.39,0.65-1.86,0.94-2.42c0.23-0.44,1.18-1.69,1.5-2.28c1.48-2.79,1.05-6.56-2.3-8.31
				C74.28,204.68,71.21,208.69,69.59,212.14z"/>
			<path class="st7" d="M71.76,213.64c0.83-1.03,1.99-0.97,2.47-1.6c0.49-0.63,1.05-1.57,1.68-2.11c0.63-0.54,3.05,0.92,3.8,1.5
				c0.75,0.58,2.4,1.54,3.29,1.55c0.89,0.01,2.31-1.41,2.07-2.5l-0.46,0.14c0,0-0.47-2.02-1.65-2.87l-0.12,0.82
				c0,0-3.35-2.25-4.75-2.75c-1.4-0.5-3.15,0.05-3.15,0.05s-1.23-1.34-2.72-0.11c-0.84,0.69-4.75,4.22-4.51,11.49l3.31-3.86
				L71.76,213.64z"/>
			<g>
				<path class="st8" d="M71.04,212.95c-0.35-0.3-1.12-1.12-1.68,0.37c-0.96,2.57,0.53,3.16,0.53,3.16
					c0.09-0.39,0.22-0.93,0.41-1.55c0.5-0.03,0.17-0.58,0.3-0.88c0-0.06,0.04-0.12,0.07-0.18C70.77,213.56,70.9,213.27,71.04,212.95
					z"/>
				<path class="st9" d="M70.67,213.86c0,0-0.22-0.66-0.64-0.66c-0.42,0-0.59,0.89-0.57,1.49c0.02,0.6,0.3,0.79,0.41,0.69
					c0.12-0.1-0.33-0.68-0.01-0.79c0.32-0.11,0.55-0.04,0.6-0.17C70.52,214.29,70.67,213.86,70.67,213.86z"/>
				<path class="st7" d="M72.47,212.4c-0.6,0.84-2.11,4.05-2.11,4.05l-0.4-0.22l1.09-3.65L72.47,212.4z"/>
			</g>
			<path class="st9" d="M72.34,223.47c-1.56-0.72-2.81-3.27-3.02-4.24c-0.21-0.97,0.4-2.85,0.4-2.85s-0.48-0.17-0.58-0.82
				c0,0-0.35,0.78-0.19,1.19c0.16,0.41,0.33,0.57,0.29,0.79c-0.03,0.22-0.93,2.78-0.01,4.11C70.15,222.98,72.34,223.47,72.34,223.47
				z"/>
		</g>
		<path class="st5" d="M42,250.27c0,0-0.99,0.94-1.38,4.35c-0.39,3.41,7.27,22.3,7.49,22.96c0.22,0.66-4.18,14.04-5.51,20.21
			c-1.32,6.17-2.15,12.11-2.15,12.11s2.04,1.05,4.96,0.33c0,0,9.97-25.16,10.46-29.24c0.5-4.07-2.15-16.24-2.15-16.24
			s7.1,12.39,7.21,13.21c0.11,0.83-4.9,17.18-5.89,22.91c-0.99,5.73-1.25,9.32-1.25,9.32s2.7,1.1,5.18-0.28
			c0,0,9.13-26.94,9.13-30.19c0-3.25-2.59-10.08-3.91-13.66c-1.32-3.58-3.03-6.61-3.03-6.61L42,250.27z"/>
		<path class="st14" d="M68.65,221.5l-0.28,4.76l2.42-1.62l1.23-0.2c0,0,2.46,2.28,3.15,3.05c0.69,0.77-3,9.44-5.42,13.9
			c-2.42,4.46-8.59,18.06-8.59,18.06s-0.55,1.57-8.15-1.18c-7.6-2.75-11.56-8.01-11.56-8.01s12.28-23.46,14.87-26.87
			c2.59-3.41,3.74-4.93,4.69-4.76c0.95,0.17,4.87,1.2,4.87,1.2L68.65,221.5z"/>
		<path class="st7" d="M54.36,311.43v2.33c0,0.23,0.19,0.42,0.42,0.42h7.5c0.66,0,0.94-0.83,0.41-1.22
			c-1.09-0.81-2.84-1.62-4.13-2.25c-0.31,0.27-0.77,1.1-1.31,1.21C56.72,312.02,54.36,311.43,54.36,311.43z"/>
		<polygon class="st16" points="72.24,223.66 70.79,224.65 70.84,224.56 71.54,223.22 71.85,223.33 		"/>
		<path class="st16" d="M68.65,221.5l-1.87,1.79c-0.66-1.49-1.6-3.32-1.6-3.32l1.6-0.95L68.65,221.5z"/>
		<polygon class="st17" points="72.02,224.45 71.63,225.82 70.78,224.68 70.79,224.65 72.24,223.66 		"/>
		<path class="st8" d="M49.37,241.52c1.78,0.95,8.27-8.86,10.71-13.23c2.44-4.37,3.59-8.25,1.42-9.41c-2.17-1.16-4.77,1.94-7.05,6.4
			C52.16,229.73,47.59,240.57,49.37,241.52z"/>
		<path class="st2" d="M133.89,289.05c2.31-5.15,3.38-10.7,3.22-16.23l5.27-0.15c-0.13-4.74-1.05-9.46-2.76-13.95l-4.93,1.88
			c-1.93-5.07-4.97-9.8-9.16-13.78l3.61-3.81l-0.05-0.05c-2.91-2.75-6.13-5.02-9.52-6.79c-0.74-0.39-1.49-0.75-2.24-1.09l-2.16,4.81
			c-5.15-2.31-10.7-3.39-16.23-3.24l-0.14-5.27c-4.74,0.13-9.46,1.04-13.95,2.75l1.87,4.94c-5.07,1.92-9.8,4.96-13.78,9.15
			l-3.81-3.61l-0.07,0.07c-2.75,2.91-5.02,6.12-6.79,9.52c-0.38,0.73-0.74,1.47-1.07,2.21l4.81,2.16
			c-2.32,5.15-3.39,10.7-3.25,16.22l-5.27,0.14c0.12,4.74,1.04,9.46,2.73,13.95l4.94-1.87c1.92,5.07,4.95,9.8,9.14,13.79l-3.62,3.81
			l0.1,0.09c2.91,2.75,6.12,5.02,9.52,6.79c0.76,0.4,1.53,0.77,2.31,1.11l2.15-4.81c5.16,2.3,10.71,3.37,16.23,3.21l0.15,5.27
			c4.74-0.13,9.46-1.06,13.94-2.77l-1.88-4.93c5.07-1.93,9.79-4.98,13.77-9.18l3.81,3.61l0.02-0.03c2.75-2.91,5.02-6.12,6.79-9.52
			c0.39-0.75,0.76-1.51,1.1-2.27L133.89,289.05z M76.69,298.48L76.69,298.48l0.65-0.69L76.69,298.48z M116.3,289.29
			c-7.07,7.49-18.07,9.05-26.76,4.51c-1.8-0.94-3.49-2.13-5.05-3.6c-7.49-7.07-9.05-18.07-4.51-26.76c0.94-1.8,2.13-3.49,3.6-5.05
			c7.06-7.49,18.07-9.05,26.76-4.51c1.8,0.94,3.49,2.13,5.05,3.6c7.49,7.07,9.05,18.07,4.51,26.76
			C118.97,286.04,117.77,287.74,116.3,289.29z"/>
		<path class="st8" d="M64.72,258.05c1.4-1.12-6.43-11.7-8.75-14.6s-4.98-5.79-6.55-4.54c-1.57,1.25,0.67,4.49,2.99,7.39
			C54.73,249.2,63.33,259.17,64.72,258.05z"/>
		<path class="st8" d="M62.67,255.34c-1.74,1.19,0.71,4.03,1.58,4.97c1.42,1.53,3.07-0.07,3.67-0.61c0.6-0.54-1.7-1.51-1.66-1.75
			c0.03-0.24,1.85,1.2,2.36,0.63c0.51-0.57-1.66-2.78-2.86-3.33C64.56,254.7,63.76,254.59,62.67,255.34z"/>
		<path class="st16" d="M61.33,218.75c-1.59-0.83-3.74,0.43-5.9,3.83c-2.15,3.4-6.08,11.64-6.08,11.64l5.8,3.02
			c0,0,5.5-9.48,6.94-12.1C63.53,222.52,63.49,219.88,61.33,218.75z"/>
	</g>
	<g>
		<path class="st2" d="M68.45,111.83h44.97c1.12,0,2.04-0.91,2.04-2.04V83.28c0-1.12-0.91-2.04-2.04-2.04H68.45
			c-1.12,0-2.04,0.91-2.04,2.04v26.51C66.42,110.92,67.33,111.83,68.45,111.83z"/>
		<g>
			<path class="st18" d="M68.45,109.16h44.97c1.12,0,2.04-0.91,2.04-2.04V80.61c0-1.12-0.91-2.04-2.04-2.04H68.45
				c-1.12,0-2.04,0.91-2.04,2.04v26.51C66.42,108.24,67.33,109.16,68.45,109.16z"/>
			<path class="st2" d="M113.43,109.41H68.45c-1.26,0-2.29-1.03-2.29-2.29V80.61c0-1.26,1.03-2.29,2.29-2.29h44.97
				c1.26,0,2.29,1.03,2.29,2.29v26.51C115.71,108.38,114.69,109.41,113.43,109.41z M68.45,78.82c-0.99,0-1.79,0.8-1.79,1.79v26.51
				c0,0.98,0.8,1.79,1.79,1.79h44.97c0.99,0,1.79-0.8,1.79-1.79V80.61c0-0.99-0.8-1.79-1.79-1.79H68.45z"/>
		</g>
		<rect x="94.63" y="83.13" class="st1" width="17.53" height="21.32"/>
		<g>
			<rect x="71.29" y="83.13" class="st1" width="19.65" height="1.25"/>
			<rect x="71.29" y="86.02" class="st1" width="19.65" height="1.25"/>
			<rect x="71.29" y="88.91" class="st1" width="19.65" height="1.25"/>
			<rect x="71.29" y="91.79" class="st1" width="19.65" height="1.25"/>
			<rect x="71.29" y="94.68" class="st1" width="19.65" height="1.25"/>
			<rect x="71.29" y="97.57" class="st1" width="19.65" height="1.25"/>
			<rect x="71.29" y="103.34" class="st1" width="13.68" height="1.25"/>
			<rect x="71.29" y="100.46" class="st1" width="19.65" height="1.25"/>
		</g>
		<g>
			<polygon class="st1" points="101.92,85.05 96.74,94.02 107.1,94.02 			"/>
			<path class="st18" d="M107.75,94.39H96.09l5.83-10.1L107.75,94.39z M97.39,93.64h9.06l-4.53-7.85L97.39,93.64z"/>
		</g>
		<g>
			<polygon class="st1" points="106.07,86.92 100.89,95.89 111.25,95.89 			"/>
			<path class="st18" d="M111.9,96.27h-11.66l5.83-10.1L111.9,96.27z M101.54,95.52h9.06l-4.53-7.85L101.54,95.52z"/>
		</g>
		<g>
			<path class="st1" d="M110.11,97.99c0,2.23-1.81,4.04-4.04,4.04c-2.23,0-4.04-1.81-4.04-4.04c0-2.23,1.81-4.04,4.04-4.04
				C108.3,93.95,110.11,95.76,110.11,97.99z"/>
			<path class="st18" d="M106.07,102.41c-2.43,0-4.41-1.98-4.41-4.41c0-2.43,1.98-4.41,4.41-4.41s4.41,1.98,4.41,4.41
				C110.48,100.43,108.5,102.41,106.07,102.41z M106.07,94.33c-2.02,0-3.66,1.64-3.66,3.66s1.64,3.66,3.66,3.66s3.66-1.64,3.66-3.66
				S108.09,94.33,106.07,94.33z"/>
		</g>
	</g>
	<g>
		<path class="st13" d="M28.17,154.84H94c1.65,0,2.98-1.33,2.98-2.98v-38.81c0-1.65-1.33-2.98-2.98-2.98H28.17
			c-1.65,0-2.98,1.33-2.98,2.98v38.81C25.19,153.51,26.52,154.84,28.17,154.84z"/>
		<g>
			<path class="st18" d="M28.17,150.93H94c1.65,0,2.98-1.33,2.98-2.98v-38.81c0-1.65-1.33-2.98-2.98-2.98H28.17
				c-1.65,0-2.98,1.33-2.98,2.98v38.81C25.19,149.6,26.52,150.93,28.17,150.93z"/>
			<path class="st13" d="M94,151.18H28.17c-1.78,0-3.23-1.45-3.23-3.23v-38.81c0-1.78,1.45-3.23,3.23-3.23H94
				c1.78,0,3.23,1.45,3.23,3.23v38.81C97.23,149.73,95.78,151.18,94,151.18z M28.17,106.41c-1.51,0-2.73,1.23-2.73,2.73v38.81
				c0,1.51,1.22,2.73,2.73,2.73H94c1.51,0,2.73-1.23,2.73-2.73v-38.81c0-1.51-1.22-2.73-2.73-2.73H28.17z"/>
		</g>
		<g>
			<g>
				<rect x="34.86" y="112.57" class="st1" width="5.48" height="31.95"/>
				<rect x="46.6" y="112.57" class="st1" width="5.48" height="31.95"/>
				<rect x="58.34" y="112.57" class="st1" width="5.48" height="31.95"/>
				<rect x="70.08" y="112.57" class="st1" width="5.48" height="31.95"/>
				<rect x="81.82" y="112.57" class="st1" width="5.48" height="31.95"/>
			</g>
			<g>
				<rect x="34.86" y="136.54" class="st14" width="5.48" height="7.98"/>
				<rect x="46.6" y="125.9" class="st7" width="5.48" height="18.62"/>
				<rect x="58.34" y="130.94" class="st13" width="5.48" height="13.59"/>
				<rect x="70.08" y="121.47" class="st2" width="5.48" height="23.05"/>
				<rect x="81.82" y="117.35" class="st19" width="5.48" height="27.17"/>
			</g>
		</g>
	</g>
	<g>
		<g>
			<path class="st18" d="M321.46,161.71h32.63c0.82,0,1.48-0.66,1.48-1.48V141c0-0.82-0.66-1.48-1.48-1.48h-32.63
				c-0.82,0-1.48,0.66-1.48,1.48v19.23C319.98,161.05,320.64,161.71,321.46,161.71z"/>
			<path class="st1" d="M354.09,161.96h-32.63c-0.95,0-1.73-0.78-1.73-1.73V141c0-0.95,0.78-1.73,1.73-1.73h32.63
				c0.95,0,1.73,0.77,1.73,1.73v19.23C355.81,161.19,355.04,161.96,354.09,161.96z M321.46,139.77c-0.68,0-1.23,0.55-1.23,1.23
				v19.23c0,0.68,0.55,1.23,1.23,1.23h32.63c0.68,0,1.23-0.55,1.23-1.23V141c0-0.68-0.55-1.23-1.23-1.23H321.46z"/>
		</g>
		<g>
			<g>
				<rect x="351.29" y="141.63" class="st20" width="0.5" height="17.97"/>
			</g>
			<g>
				<rect x="346.7" y="141.63" class="st20" width="0.5" height="17.97"/>
			</g>
			<g>
				<rect x="342.11" y="141.63" class="st20" width="0.5" height="17.97"/>
			</g>
			<g>
				<rect x="337.52" y="141.63" class="st20" width="0.5" height="17.97"/>
			</g>
			<g>
				<rect x="332.94" y="141.63" class="st20" width="0.5" height="17.97"/>
			</g>
			<g>
				<rect x="323.76" y="141.63" class="st20" width="0.5" height="17.97"/>
			</g>
			<g>
				<rect x="328.35" y="141.63" class="st20" width="0.5" height="17.97"/>
			</g>
			<g>
				<g>
					<path class="st13" d="M324.01,156.47c-0.13,0-0.26-0.05-0.36-0.15c-0.19-0.2-0.19-0.51,0.01-0.71l4.68-4.54l4.58-1.15
						l4.72-4.68l4.68,1.87l4.39-2.21l4.57-2.51c0.24-0.13,0.55-0.04,0.68,0.2c0.13,0.24,0.04,0.55-0.2,0.68l-4.59,2.51l-4.8,2.43
						l-4.49-1.79l-4.45,4.41l-4.59,1.15l-4.49,4.35C324.26,156.43,324.13,156.47,324.01,156.47z"/>
				</g>
				<g>
					<rect x="323.1" y="155.06" class="st14" width="1.83" height="1.83"/>
					<rect x="327.68" y="150.62" class="st14" width="1.83" height="1.83"/>
					<rect x="332.27" y="149.46" class="st14" width="1.83" height="1.83"/>
					<rect x="336.86" y="144.92" class="st14" width="1.83" height="1.83"/>
					<rect x="341.45" y="146.75" class="st14" width="1.83" height="1.83"/>
					<rect x="346.04" y="144.43" class="st14" width="1.83" height="1.83"/>
					<rect x="350.62" y="141.92" class="st14" width="1.83" height="1.83"/>
				</g>
			</g>
		</g>
		<rect x="319.98" y="163.29" class="st1" width="35.58" height="0.91"/>
		<rect x="319.98" y="165.38" class="st1" width="35.58" height="0.91"/>
	</g>
	<g>
		<g>
			<path class="st21" d="M326.51,129.99h33.58c0.84,0,1.52-0.68,1.52-1.52v-19.79c0-0.84-0.68-1.52-1.52-1.52h-33.58
				c-0.84,0-1.52,0.68-1.52,1.52v19.79C324.99,129.31,325.67,129.99,326.51,129.99z"/>
			<path class="st21" d="M360.09,130.24h-33.58c-0.98,0-1.77-0.79-1.77-1.77v-19.79c0-0.98,0.79-1.77,1.77-1.77h33.58
				c0.98,0,1.77,0.79,1.77,1.77v19.79C361.86,129.45,361.06,130.24,360.09,130.24z M326.51,107.41c-0.7,0-1.27,0.57-1.27,1.27v19.79
				c0,0.7,0.57,1.27,1.27,1.27h33.58c0.7,0,1.27-0.57,1.27-1.27v-19.79c0-0.7-0.57-1.27-1.27-1.27H326.51z"/>
		</g>
		<g>
			<path class="st18" d="M326.51,128.11h33.58c0.84,0,1.52-0.68,1.52-1.52v-19.79c0-0.84-0.68-1.52-1.52-1.52h-33.58
				c-0.84,0-1.52,0.68-1.52,1.52v19.79C324.99,127.42,325.67,128.11,326.51,128.11z"/>
			<path class="st21" d="M360.09,128.36h-33.58c-0.98,0-1.77-0.79-1.77-1.77v-19.79c0-0.98,0.79-1.77,1.77-1.77h33.58
				c0.98,0,1.77,0.79,1.77,1.77v19.79C361.86,127.56,361.06,128.36,360.09,128.36z M326.51,105.52c-0.7,0-1.27,0.57-1.27,1.27v19.79
				c0,0.7,0.57,1.27,1.27,1.27h33.58c0.7,0,1.27-0.57,1.27-1.27v-19.79c0-0.7-0.57-1.27-1.27-1.27H326.51z"/>
		</g>
		<g>
			<rect x="327.99" y="108.44" class="st1" width="9.49" height="0.93"/>
			<rect x="327.99" y="110.6" class="st1" width="9.49" height="0.93"/>
			<rect x="327.99" y="112.75" class="st1" width="9.49" height="0.93"/>
			<rect x="327.99" y="114.91" class="st1" width="9.49" height="0.93"/>
			<rect x="327.99" y="117.06" class="st1" width="9.49" height="0.93"/>
			<rect x="327.99" y="119.22" class="st1" width="9.49" height="0.93"/>
			<rect x="327.99" y="123.53" class="st1" width="6.61" height="0.93"/>
			<rect x="327.99" y="121.38" class="st1" width="9.49" height="0.93"/>
		</g>
		<rect x="338.93" y="108.39" class="st1" width="18.78" height="16.07"/>
		<g>
			<g>
				<path class="st4" d="M342.06,110.43c0,0.47-0.38,0.85-0.85,0.85s-0.85-0.38-0.85-0.85c0-0.47,0.38-0.85,0.85-0.85
					S342.06,109.96,342.06,110.43z"/>
				<path class="st4" d="M344.9,110.43c0,0.47-0.38,0.85-0.85,0.85c-0.47,0-0.85-0.38-0.85-0.85c0-0.47,0.38-0.85,0.85-0.85
					C344.52,109.58,344.9,109.96,344.9,110.43z"/>
				<path class="st4" d="M347.75,110.43c0,0.47-0.38,0.85-0.85,0.85c-0.47,0-0.85-0.38-0.85-0.85c0-0.47,0.38-0.85,0.85-0.85
					C347.37,109.58,347.75,109.96,347.75,110.43z"/>
				<path class="st18" d="M350.6,110.43c0,0.47-0.38,0.85-0.85,0.85s-0.85-0.38-0.85-0.85c0-0.47,0.38-0.85,0.85-0.85
					S350.6,109.96,350.6,110.43z"/>
				<path class="st18" d="M353.45,110.43c0,0.47-0.38,0.85-0.85,0.85c-0.47,0-0.85-0.38-0.85-0.85c0-0.47,0.38-0.85,0.85-0.85
					C353.06,109.58,353.45,109.96,353.45,110.43z"/>
				<path class="st18" d="M356.29,110.43c0,0.47-0.38,0.85-0.85,0.85c-0.47,0-0.85-0.38-0.85-0.85c0-0.47,0.38-0.85,0.85-0.85
					C355.91,109.58,356.29,109.96,356.29,110.43z"/>
			</g>
			<g>
				<path class="st14" d="M342.06,113.43c0,0.47-0.38,0.85-0.85,0.85s-0.85-0.38-0.85-0.85c0-0.47,0.38-0.85,0.85-0.85
					S342.06,112.96,342.06,113.43z"/>
				<path class="st14" d="M344.9,113.43c0,0.47-0.38,0.85-0.85,0.85c-0.47,0-0.85-0.38-0.85-0.85c0-0.47,0.38-0.85,0.85-0.85
					C344.52,112.58,344.9,112.96,344.9,113.43z"/>
				<path class="st14" d="M347.75,113.43c0,0.47-0.38,0.85-0.85,0.85c-0.47,0-0.85-0.38-0.85-0.85c0-0.47,0.38-0.85,0.85-0.85
					C347.37,112.58,347.75,112.96,347.75,113.43z"/>
				<path class="st14" d="M350.6,113.43c0,0.47-0.38,0.85-0.85,0.85s-0.85-0.38-0.85-0.85c0-0.47,0.38-0.85,0.85-0.85
					S350.6,112.96,350.6,113.43z"/>
				<path class="st18" d="M353.45,113.43c0,0.47-0.38,0.85-0.85,0.85c-0.47,0-0.85-0.38-0.85-0.85c0-0.47,0.38-0.85,0.85-0.85
					C353.06,112.58,353.45,112.96,353.45,113.43z"/>
				<path class="st18" d="M356.29,113.43c0,0.47-0.38,0.85-0.85,0.85c-0.47,0-0.85-0.38-0.85-0.85c0-0.47,0.38-0.85,0.85-0.85
					C355.91,112.58,356.29,112.96,356.29,113.43z"/>
			</g>
			<g>
				<path class="st13" d="M342.06,116.43c0,0.47-0.38,0.85-0.85,0.85s-0.85-0.38-0.85-0.85c0-0.47,0.38-0.85,0.85-0.85
					S342.06,115.96,342.06,116.43z"/>
				<path class="st13" d="M344.9,116.43c0,0.47-0.38,0.85-0.85,0.85c-0.47,0-0.85-0.38-0.85-0.85c0-0.47,0.38-0.85,0.85-0.85
					C344.52,115.58,344.9,115.96,344.9,116.43z"/>
				<path class="st13" d="M347.75,116.43c0,0.47-0.38,0.85-0.85,0.85c-0.47,0-0.85-0.38-0.85-0.85c0-0.47,0.38-0.85,0.85-0.85
					C347.37,115.58,347.75,115.96,347.75,116.43z"/>
				<path class="st13" d="M350.6,116.43c0,0.47-0.38,0.85-0.85,0.85s-0.85-0.38-0.85-0.85c0-0.47,0.38-0.85,0.85-0.85
					S350.6,115.96,350.6,116.43z"/>
				<path class="st13" d="M353.45,116.43c0,0.47-0.38,0.85-0.85,0.85c-0.47,0-0.85-0.38-0.85-0.85c0-0.47,0.38-0.85,0.85-0.85
					C353.06,115.58,353.45,115.96,353.45,116.43z"/>
				<path class="st18" d="M356.29,116.43c0,0.47-0.38,0.85-0.85,0.85c-0.47,0-0.85-0.38-0.85-0.85c0-0.47,0.38-0.85,0.85-0.85
					C355.91,115.58,356.29,115.96,356.29,116.43z"/>
			</g>
			<g>
				<path class="st7" d="M342.06,119.43c0,0.47-0.38,0.85-0.85,0.85s-0.85-0.38-0.85-0.85c0-0.47,0.38-0.85,0.85-0.85
					S342.06,118.96,342.06,119.43z"/>
				<path class="st7" d="M344.9,119.43c0,0.47-0.38,0.85-0.85,0.85c-0.47,0-0.85-0.38-0.85-0.85c0-0.47,0.38-0.85,0.85-0.85
					C344.52,118.58,344.9,118.96,344.9,119.43z"/>
				<path class="st7" d="M347.75,119.43c0,0.47-0.38,0.85-0.85,0.85c-0.47,0-0.85-0.38-0.85-0.85c0-0.47,0.38-0.85,0.85-0.85
					C347.37,118.58,347.75,118.96,347.75,119.43z"/>
				<circle class="st7" cx="349.75" cy="119.43" r="0.85"/>
				<path class="st18" d="M353.45,119.43c0,0.47-0.38,0.85-0.85,0.85c-0.47,0-0.85-0.38-0.85-0.85c0-0.47,0.38-0.85,0.85-0.85
					C353.06,118.58,353.45,118.96,353.45,119.43z"/>
				<path class="st18" d="M356.29,119.43c0,0.47-0.38,0.85-0.85,0.85c-0.47,0-0.85-0.38-0.85-0.85c0-0.47,0.38-0.85,0.85-0.85
					C355.91,118.58,356.29,118.96,356.29,119.43z"/>
			</g>
			<g>
				<path class="st22" d="M342.06,122.43c0,0.47-0.38,0.85-0.85,0.85s-0.85-0.38-0.85-0.85c0-0.47,0.38-0.85,0.85-0.85
					S342.06,121.96,342.06,122.43z"/>
				<path class="st22" d="M344.9,122.43c0,0.47-0.38,0.85-0.85,0.85c-0.47,0-0.85-0.38-0.85-0.85c0-0.47,0.38-0.85,0.85-0.85
					C344.52,121.58,344.9,121.96,344.9,122.43z"/>
				<path class="st22" d="M347.75,122.43c0,0.47-0.38,0.85-0.85,0.85c-0.47,0-0.85-0.38-0.85-0.85c0-0.47,0.38-0.85,0.85-0.85
					C347.37,121.58,347.75,121.96,347.75,122.43z"/>
				<path class="st18" d="M350.6,122.43c0,0.47-0.38,0.85-0.85,0.85s-0.85-0.38-0.85-0.85c0-0.47,0.38-0.85,0.85-0.85
					S350.6,121.96,350.6,122.43z"/>
				<path class="st18" d="M353.45,122.43c0,0.47-0.38,0.85-0.85,0.85c-0.47,0-0.85-0.38-0.85-0.85c0-0.47,0.38-0.85,0.85-0.85
					C353.06,121.58,353.45,121.96,353.45,122.43z"/>
				<path class="st18" d="M356.29,122.43c0,0.47-0.38,0.85-0.85,0.85c-0.47,0-0.85-0.38-0.85-0.85c0-0.47,0.38-0.85,0.85-0.85
					C355.91,121.58,356.29,121.96,356.29,122.43z"/>
			</g>
		</g>
	</g>
	<g>
		<g>
			<path class="st7" d="M120.56,316.64c-0.12,0-0.23-0.01-0.35-0.04c-0.8-0.19-1.3-1-1.11-1.81l31.53-131.32
				c0.2-0.8,1-1.29,1.81-1.11c0.8,0.19,1.3,1,1.11,1.81L122.01,315.5C121.85,316.18,121.23,316.64,120.56,316.64z"/>
		</g>
		<g>
			<path class="st7" d="M139.03,316.64c-0.12,0-0.23-0.01-0.35-0.04c-0.8-0.19-1.3-1-1.11-1.81l31.53-131.32
				c0.2-0.8,1-1.29,1.81-1.11c0.8,0.19,1.3,1,1.11,1.81L140.49,315.5C140.32,316.18,139.71,316.64,139.03,316.64z"/>
		</g>
		<g>
			<g>
				<path class="st7" d="M168.37,194.45H149.9c-0.83,0-1.5-0.67-1.5-1.5c0-0.83,0.67-1.5,1.5-1.5h18.47c0.83,0,1.5,0.67,1.5,1.5
					C169.87,193.78,169.2,194.45,168.37,194.45z"/>
			</g>
			<g>
				<path class="st7" d="M164.49,210.6h-18.47c-0.83,0-1.5-0.67-1.5-1.5c0-0.83,0.67-1.5,1.5-1.5h18.47c0.83,0,1.5,0.67,1.5,1.5
					C165.99,209.93,165.32,210.6,164.49,210.6z"/>
			</g>
			<g>
				<path class="st7" d="M160.61,226.76h-18.47c-0.83,0-1.5-0.67-1.5-1.5c0-0.83,0.67-1.5,1.5-1.5h18.47c0.83,0,1.5,0.67,1.5,1.5
					C162.11,226.08,161.44,226.76,160.61,226.76z"/>
			</g>
			<g>
				<path class="st7" d="M156.73,242.91h-18.47c-0.83,0-1.5-0.67-1.5-1.5c0-0.83,0.67-1.5,1.5-1.5h18.47c0.83,0,1.5,0.67,1.5,1.5
					C158.23,242.24,157.56,242.91,156.73,242.91z"/>
			</g>
			<g>
				<path class="st7" d="M152.86,259.06h-18.47c-0.83,0-1.5-0.67-1.5-1.5s0.67-1.5,1.5-1.5h18.47c0.83,0,1.5,0.67,1.5,1.5
					S153.68,259.06,152.86,259.06z"/>
			</g>
			<g>
				<path class="st7" d="M148.98,275.22H130.5c-0.83,0-1.5-0.67-1.5-1.5c0-0.83,0.67-1.5,1.5-1.5h18.47c0.83,0,1.5,0.67,1.5,1.5
					C150.48,274.54,149.8,275.22,148.98,275.22z"/>
			</g>
			<g>
				<path class="st7" d="M145.1,291.37h-18.47c-0.83,0-1.5-0.67-1.5-1.5c0-0.83,0.67-1.5,1.5-1.5h18.47c0.83,0,1.5,0.67,1.5,1.5
					C146.6,290.7,145.93,291.37,145.1,291.37z"/>
			</g>
			<g>
				<path class="st7" d="M141.22,307.52h-18.47c-0.83,0-1.5-0.67-1.5-1.5c0-0.83,0.67-1.5,1.5-1.5h18.47c0.83,0,1.5,0.67,1.5,1.5
					C142.72,306.85,142.05,307.52,141.22,307.52z"/>
			</g>
		</g>
	</g>
	<g>
		<path class="st8" d="M174.6,136.03c-0.39-1.49-11.43,1-14.52,1.81c-3.09,0.82-6.28,1.91-5.84,3.57c0.44,1.67,3.76,1.03,6.85,0.22
			C164.17,140.81,174.99,137.51,174.6,136.03z"/>
		<path class="st8" d="M171.75,136.7c0.33,1.78,3.41,0.84,4.45,0.48c1.69-0.59,2.53-3.09,2.31-3.75c-0.22-0.66-3.48,1.22-3.65,1.11
			c-0.18-0.11,1.77-0.8,1.5-1.4c-0.27-0.6-2.76,0.34-3.61,1.09C171.91,135,171.54,135.59,171.75,136.7z"/>
		<path class="st8" d="M156.29,141.26c1.66,0.44,5.12-8.97,6.3-13.07c1.17-4.1,1.36-7.54-0.66-8.08c-2.03-0.54-3.57,2.54-4.6,6.68
			S154.63,140.82,156.29,141.26z"/>
		<path class="st3" d="M162.04,120c-1.54,0-2.68,1.81-2.97,5.26c-0.29,3.44,0,11.29,0,11.29h5.62c0,0,0.42-9.41,0.48-11.98
			C165.21,122,164.13,120,162.04,120z"/>
		<path class="st3" d="M164.68,136.54c0,0,3.49-0.97,4.09-0.98c0.6-0.01,2.65,0,2.65,0s0.4,0.98,0.93,2.36c0,0-0.99,0.57-1.21,0.78
			c-0.21,0.21,0,0.35-1.35,0.99c-1.35,0.64-6.91,3.3-8.9,3.12c-1.99-0.18-1.78-4.22-1.84-6.28c-0.06-2.06,4.11-2.59,4.11-2.59
			L164.68,136.54z"/>
		<g>
			<g>
				<path class="st3" d="M210.02,84.79c-0.94-12.3,8.3-23.07,20.6-24.01c12.3-0.94,23.07,8.3,24.01,20.6
					c0.94,12.3-8.3,23.07-20.6,24.01C221.73,106.33,210.96,97.09,210.02,84.79z"/>
			</g>
			<g>
				<g>
					<g>
						
							<rect x="163.67" y="113.46" transform="matrix(0.7638 -0.6454 0.6454 0.7638 -29.7964 152.0003)" class="st3" width="58.26" height="6.52"/>
					</g>
					<g>
						<path class="st5" d="M174.33,138.55c1.3-0.1,2.58-0.59,3.66-1.49l21.66-17.99c2.77-2.3,3.15-6.41,0.85-9.18
							c-2.3-2.77-6.41-3.15-9.18-0.85l-21.66,17.99c-2.77,2.3-3.15,6.41-0.85,9.18C170.22,137.91,172.29,138.71,174.33,138.55z"/>
					</g>
					<g>
						<path class="st5" d="M206.12,85.09c-1.11-14.45,9.75-27.1,24.2-28.21c14.45-1.1,27.1,9.75,28.21,24.2
							c1.11,14.45-9.75,27.1-24.2,28.21C219.88,110.4,207.23,99.54,206.12,85.09z M212.62,84.59c0.83,10.87,10.35,19.03,21.22,18.2
							c10.87-0.83,19.03-10.35,18.2-21.22c-0.83-10.87-10.35-19.03-21.21-18.2C219.95,64.21,211.79,73.73,212.62,84.59z"/>
					</g>
				</g>
			</g>
		</g>
		<path class="st8" d="M146.49,152.84h15.87l0.65-25.53l-1.18-7.2l-7.69-2.36l-4.44,0.85c-2.52,0.48-4.32,2.73-4.23,5.3l1.62,18.07
			L146.49,152.84z"/>
		<g>
			<path class="st8" d="M152.47,114.33v5.13c0,0,1.08,0.65,3.62,0.65c1.37,0,1.67-0.65,1.67-0.65v-1.9L152.47,114.33z"/>
			<g>
				<path class="st9" d="M158.51,109.7c0.52,0.14,0.73,1.88,0.63,1.87c-0.09-0.01-0.42-1.39-0.88-1.6
					C157.81,109.76,158.51,109.7,158.51,109.7z"/>
				<path class="st9" d="M160.46,109.77c-0.29,0.35-0.06,1.62-0.05,1.74c0.01,0.11,0.14-1.54,0.14-1.54L160.46,109.77z"/>
				<g>
					<path class="st10" d="M156.31,109.77v0.2c0,0,2.19,0.01,2.2-0.01c0.02-0.02,0.08-0.19,0-0.26
						C158.09,109.34,156.31,109.77,156.31,109.77z"/>
					<path class="st10" d="M162.03,109.76v0.22c0,0-1.53-0.01-1.54-0.02c-0.02,0-0.06-0.2,0-0.26
						C160.79,109.34,162.03,109.76,162.03,109.76z"/>
					<circle class="st10" cx="157.56" cy="111.14" r="0.44"/>
					<path class="st10" d="M156.65,110.78c0.23-0.12,0.55-0.25,0.91-0.25c0.36,0,0.68,0.13,0.91,0.25H156.65z"/>
					<circle class="st10" cx="161.19" cy="111.14" r="0.44"/>
					<path class="st10" d="M160.55,110.78c0.16-0.12,0.38-0.25,0.64-0.25c0.25,0,0.48,0.13,0.64,0.25H160.55z"/>
				</g>
				<path class="st8" d="M159.89,113.36c-0.44,0-0.8-0.04-0.8,0.08c0,0.12,0.36,0.26,0.8,0.26s0.8-0.14,0.8-0.26
					C160.69,113.32,160.33,113.36,159.89,113.36z"/>
				<path class="st9" d="M159.89,115.16c-0.32,0-0.59-0.03-0.59,0.06c0,0.09,0.26,0.29,0.59,0.29s0.59-0.2,0.59-0.29
					C160.47,115.14,160.21,115.16,159.89,115.16z"/>
				<g>
					<path class="st9" d="M161.37,114.45c0.04,0,0.08,0.03,0.1,0.07c0.02,0.05-0.02,0.11-0.07,0.12c-0.03,0.01-0.76,0.22-1.5,0.22
						c-0.74,0-1.49-0.21-1.53-0.21c-0.05-0.01-0.09-0.07-0.07-0.12c0.01-0.05,0.07-0.08,0.12-0.07c0.01,0,0.76,0.21,1.47,0.21
						c0.71,0,1.44-0.21,1.45-0.21C161.35,114.45,161.36,114.45,161.37,114.45z"/>
				</g>
			</g>
			<path class="st8" d="M151.88,110.5c0.01,0.19,0.02,0.36,0.03,0.53c0,0.06-0.01,0.12-0.01,0.19c-0.13,3.04,1.83,6.31,4.77,6.75
				c0,0,0.02,0.01,0.07,0.01c0.02,0,0.06,0.01,0.1,0.01c0.63,0.08,2.91,0.26,3.74-0.65c0.98-1.08,1.85-3.06,1.85-4.41
				c0-1.35-0.25-1.67-0.25-2.22c0-0.43,0.23-1.76,0.23-2.34c0.02-2.72-1.81-5.41-5.06-5.41
				C152.48,102.95,151.74,107.23,151.88,110.5z"/>
			<path class="st5" d="M154.12,110.78c0.22-1.12,1.13-1.53,1.25-2.2c0.12-0.68,0.18-1.62,0.44-2.28c0.26-0.66,2.69-0.52,3.49-0.37
				c0.8,0.15,2.45,0.22,3.12-0.13c0.68-0.35,1.2-1.99,0.59-2.73l-0.29,0.29c0,0-1.16-1.35-2.4-1.53l0.24,0.68
				c0,0-3.45-0.38-4.71-0.21c-1.26,0.18-2.38,1.29-2.38,1.29s-1.47-0.53-2.12,1c-0.36,0.86-1.94,5.1,1.13,10.55l0.98-4.26
				L154.12,110.78z"/>
			<g>
				<path class="st8" d="M153.3,110.54c-0.39-0.09-1.3-0.41-1.13,0.95c0.29,2.34,1.66,2.19,1.66,2.19c-0.08-0.33-0.2-0.8-0.31-1.34
					c0.37-0.22-0.1-0.51-0.12-0.78c-0.02-0.05-0.02-0.11-0.02-0.17C153.35,111.11,153.32,110.84,153.3,110.54z"/>
				<path class="st9" d="M153.39,111.39c0,0-0.43-0.42-0.75-0.25c-0.32,0.17-0.09,0.92,0.16,1.36c0.26,0.45,0.54,0.48,0.59,0.36
					c0.05-0.12-0.52-0.39-0.32-0.6c0.2-0.21,0.41-0.25,0.39-0.37C153.44,111.77,153.39,111.39,153.39,111.39z"/>
				<path class="st5" d="M154.18,109.56c-0.12,0.88,0,3.92,0,3.92l-0.4-0.01l-0.62-3.21L154.18,109.56z"/>
			</g>
			<path class="st9" d="M158.48,118.04c-1.48,0.07-3.44-1.37-3.99-2.03c-0.54-0.66-0.83-2.34-0.83-2.34s-0.43,0.06-0.77-0.39
				c0,0,0.04,0.73,0.33,0.98c0.29,0.25,0.47,0.3,0.54,0.48c0.06,0.18,0.4,2.49,1.62,3.14C156.61,118.54,158.48,118.04,158.48,118.04
				z"/>
		</g>
		<g>
			<path class="st8" d="M144.7,205.18c0,0,0,0.11,0,0.27v1.75c0,0.19,0.43,0.97,0.84,1.14c1.45,0.62,4.23,0.25,4.34-0.25
				c0.11-0.5-0.67-1.6-1.29-2.38c0,0-0.01,0-0.01,0c-0.4-0.5-0.74-0.87-0.74-0.87s-0.78-17.49-1.6-17.47
				C145.34,187.39,144.7,205.18,144.7,205.18z"/>
			<path class="st8" d="M158.67,177.72c2.41,0,3.7-13.35,3.81-19.06c0.11-5.71-0.87-10.22-3.81-10.22c-2.94,0-3.92,4.51-3.81,10.22
				C154.97,164.36,156.26,177.72,158.67,177.72z"/>
			<path class="st8" d="M158.67,206.08c2.13,0,2.72-18.84,2.72-23.07c0-4.24-0.33-8.71-2.72-8.71c-2.39,0-2.72,4.47-2.72,8.71
				C155.95,187.24,156.54,206.08,158.67,206.08z"/>
			<path class="st8" d="M148.35,177.71c2.4,0.22,4.9-12.96,5.53-18.63c0.63-5.67,0.06-10.26-2.86-10.52
				c-2.92-0.27-4.31,4.14-4.72,9.83S145.95,177.49,148.35,177.71z"/>
			<path class="st8" d="M146.11,205.97c2.12,0.19,4.07-18.53,4.46-22.75c0.39-4.22,0.47-8.7-1.91-8.92c-2.38-0.22-3.11,4.2-3.5,8.42
				C144.77,186.95,143.99,205.78,146.11,205.97z"/>
			<g>
				<path class="st8" d="M157.25,205.31l-0.1,2.14c0,0.3,0.25,0.55,0.55,0.55h5.75c0.52,0,0.75-0.66,0.33-0.97
					c-0.87-0.64-2.08-1.4-3.21-1.61c-0.1-0.02-0.92-18.04-1.79-18.05C158,187.35,157.25,205.31,157.25,205.31z"/>
				<path class="st5" d="M157.15,205.7v2c0,0.2,0.16,0.36,0.36,0.36h6.44c0.57,0,0.8-0.71,0.35-1.05c-0.94-0.69-2.44-1.4-3.55-1.93
					c-0.26,0.23-0.66,0.95-1.12,1.04C159.18,206.21,157.15,205.7,157.15,205.7z"/>
			</g>
			<path class="st5" d="M144.7,205.44v1.75c0,0.19,0.43,0.97,0.84,1.14c1.45,0.62,4.23,0.25,4.34-0.25c0.11-0.5-0.67-1.6-1.29-2.38
				c0,0-0.01,0-0.01,0c-0.3-0.26-1.83-0.12-2.08,0.01c-0.26,0.13-0.86,0.49-0.98,0.47C145.38,206.16,144.7,205.44,144.7,205.44z"/>
		</g>
		<polygon class="st3" points="158.48,118.22 157.77,119.56 157.77,119.47 157.77,118.17 158.05,118.13 		"/>
		<path class="st3" d="M154.89,118.01l-0.71,2.1c-1.09-0.87-2.54-1.89-2.54-1.89l0.84-1.36L154.89,118.01z"/>
		<polygon class="st23" points="158.62,118.91 158.87,120.11 157.77,119.59 157.77,119.56 158.48,118.22 		"/>
		<path class="st2" d="M158.87,120.11l-0.25-1.2l3.41,1.08c0,0,1.3,2.76,1.5,6.2c0.06,0.96,0.05,3.72,0.02,7.19
			c-0.1,8.9-0.39,22.48-0.39,22.48h-0.41h-8.28h-8.37h-0.36c0,0,0.34-10.17,0.47-13.26c0.29-6.6-0.94-13.22-1.3-19.81
			c-0.03-0.51-0.05-1.02,0.06-1.51c0.27-1.12,1.3-1.55,2.22-2.05c0.8-0.43,1.7-0.69,2.59-0.82c0.35-0.05,1.57-0.39,1.84-0.19
			c0,0,1.45,1.02,2.54,1.89l0.71-2.1l1.84,3.75l1.04-2.29c0,0,0,0.09,0,0.12L158.87,120.11z"/>
		<path class="st8" d="M164.39,131.97c0.91-1.48-7.19-7.54-10.81-9.85c-3.63-2.32-6.9-3.49-8-1.69c-1.11,1.8,1.43,4.19,5.13,6.37
			C154.41,128.98,163.48,133.45,164.39,131.97z"/>
		<path class="st8" d="M181.7,125.34c-0.47-1.46-11.37,1.57-14.41,2.53c-3.04,0.97-6.18,2.22-5.66,3.86
			c0.52,1.64,3.81,0.84,6.85-0.13C171.52,130.63,182.16,126.8,181.7,125.34z"/>
		<path class="st5" d="M181.58,118.89l0.64,0.79l-0.36,0.95l-1,0.16l-0.64-0.79l0.36-0.95L181.58,118.89z"/>
		<path class="st8" d="M178.89,126.15c0.42,1.77,3.45,0.67,4.47,0.26c1.66-0.67,0.89-2.48,0.64-3.13c-0.25-0.65-1.73,0.9-1.91,0.8
			c-0.18-0.1,1.53-1.12,1.23-1.7c-0.3-0.58-2.74,0.48-3.55,1.27C178.96,124.44,178.62,125.05,178.89,126.15z"/>
		<polygon class="st5" points="154.46,155.87 146.08,155.87 144.04,203.98 148.59,203.98 154.46,157.09 156.35,203.98 
			160.83,203.98 162.73,155.87 		"/>
		<path class="st3" d="M145.22,120.71c1.12-2.11,3.61-1.58,6.65,0c3.04,1.58,10.54,7.14,10.7,7.25c0.16,0.11,6.7-0.83,8.77-1.65
			c1.98-0.78,3.38-0.99,4.94-1.09c0.1-0.01,1.95-0.29,2.1-0.35c0,0,0.56,1.25,1.09,2.76c0,0-0.94,0.43-1.24,0.62
			c-0.16,0.1-0.31,0-0.89,0.93c-0.58,0.93-12.07,4.06-13.85,4.41c-1.79,0.35-8.38-2.47-13.11-5.21
			C145.62,125.64,144.07,122.88,145.22,120.71z"/>
	</g>
	<g>
		<g>
			<polygon class="st1" points="172.38,11.53 143.63,11.53 158.01,19.96 			"/>
		</g>
		<g>
			<polygon class="st1" points="158.01,21.31 143.16,12.61 143.16,29.74 172.85,29.74 172.85,12.61 			"/>
		</g>
	</g>
	<path class="st1" d="M17.62,88.15h3.55c0.14-1.74,1.6-3.13,3.38-3.13h5.32c-0.11-0.39-0.17-0.8-0.17-1.23
		c0-2.55,2.08-4.63,4.63-4.63h8.15c2.55,0,4.63,2.08,4.63,4.63c0,0.43-0.06,0.84-0.17,1.23h0.73c1.78,0,3.24,1.39,3.38,3.13h1.07
		c2.42,0,4.4,1.98,4.4,4.4c0,2.42-1.98,4.4-4.4,4.4H17.62c-2.42,0-4.4-1.98-4.4-4.4C13.23,90.13,15.21,88.15,17.62,88.15z"/>
	<path class="st1" d="M229.71,28.29h-3.37c-0.13-1.66-1.52-2.97-3.21-2.97h-5.05c0.1-0.37,0.16-0.76,0.16-1.16
		c0-2.42-1.98-4.4-4.4-4.4h-7.74c-2.42,0-4.4,1.98-4.4,4.4c0,0.4,0.06,0.79,0.16,1.16h-0.69c-1.69,0-3.07,1.32-3.21,2.97h-1.01
		c-2.3,0-4.17,1.88-4.17,4.17s1.88,4.17,4.17,4.17h32.73c2.3,0,4.17-1.88,4.17-4.17S232.01,28.29,229.71,28.29z"/>
	<g>
		<g>
			<path class="st1" d="M323.56,118.05h-1c-0.28,0-0.5-0.22-0.5-0.5c0-0.28,0.22-0.5,0.5-0.5h1c0.28,0,0.5,0.22,0.5,0.5
				C324.06,117.82,323.84,118.05,323.56,118.05z"/>
		</g>
		<g>
			<path class="st1" d="M319.97,118.05h-1.73c-0.28,0-0.5-0.22-0.5-0.5c0-0.28,0.22-0.5,0.5-0.5h1.73c0.28,0,0.5,0.22,0.5,0.5
				C320.47,117.82,320.25,118.05,319.97,118.05z M315.65,118.05h-1.73c-0.28,0-0.5-0.22-0.5-0.5c0-0.28,0.22-0.5,0.5-0.5h1.73
				c0.28,0,0.5,0.22,0.5,0.5C316.15,117.82,315.93,118.05,315.65,118.05z"/>
		</g>
		<g>
			<path class="st1" d="M310.34,119.05c-0.28,0-0.5-0.22-0.5-0.5v-1.5h1.5c0.28,0,0.5,0.22,0.5,0.5c0,0.28-0.22,0.5-0.5,0.5h-0.5
				v0.5C310.84,118.82,310.61,119.05,310.34,119.05z"/>
		</g>
		<g>
			<path class="st1" d="M310.34,130.43c-0.28,0-0.5-0.22-0.5-0.5v-2.28c0-0.28,0.22-0.5,0.5-0.5s0.5,0.22,0.5,0.5v2.28
				C310.84,130.21,310.61,130.43,310.34,130.43z M310.34,124.74c-0.28,0-0.5-0.22-0.5-0.5v-2.28c0-0.28,0.22-0.5,0.5-0.5
				s0.5,0.22,0.5,0.5v2.28C310.84,124.52,310.61,124.74,310.34,124.74z"/>
		</g>
		<g>
			<path class="st1" d="M310.84,134.85h-1.5c-0.28,0-0.5-0.22-0.5-0.5s0.22-0.5,0.5-0.5h0.5v-0.5c0-0.28,0.22-0.5,0.5-0.5
				s0.5,0.22,0.5,0.5V134.85z"/>
		</g>
		<g>
			<path class="st1" d="M306.17,134.85h-2.11c-0.28,0-0.5-0.22-0.5-0.5s0.22-0.5,0.5-0.5h2.11c0.28,0,0.5,0.22,0.5,0.5
				S306.45,134.85,306.17,134.85z M300.89,134.85h-2.11c-0.28,0-0.5-0.22-0.5-0.5s0.22-0.5,0.5-0.5h2.11c0.28,0,0.5,0.22,0.5,0.5
				S301.17,134.85,300.89,134.85z M295.61,134.85h-2.11c-0.28,0-0.5-0.22-0.5-0.5s0.22-0.5,0.5-0.5h2.11c0.28,0,0.5,0.22,0.5,0.5
				S295.89,134.85,295.61,134.85z M290.33,134.85h-2.11c-0.28,0-0.5-0.22-0.5-0.5s0.22-0.5,0.5-0.5h2.11c0.28,0,0.5,0.22,0.5,0.5
				S290.61,134.85,290.33,134.85z"/>
		</g>
		<g>
			<path class="st1" d="M285.06,134.85h-1c-0.28,0-0.5-0.22-0.5-0.5s0.22-0.5,0.5-0.5h1c0.28,0,0.5,0.22,0.5,0.5
				S285.33,134.85,285.06,134.85z"/>
		</g>
	</g>
	<g>
		<path class="st1" d="M118.27,164.41h-1.6c-0.28,0-0.5-0.22-0.5-0.5c0-0.28,0.22-0.5,0.5-0.5h1.6c0.28,0,0.5,0.22,0.5,0.5
			C118.77,164.19,118.55,164.41,118.27,164.41z M113.68,164.41h-2c-0.28,0-0.5-0.22-0.5-0.5c0-0.28,0.22-0.5,0.5-0.5h2
			c0.28,0,0.5,0.22,0.5,0.5C114.18,164.19,113.95,164.41,113.68,164.41z M108.68,164.41h-2c-0.28,0-0.5-0.22-0.5-0.5
			c0-0.28,0.22-0.5,0.5-0.5h2c0.28,0,0.5,0.22,0.5,0.5C109.18,164.19,108.95,164.41,108.68,164.41z M104.66,163.43
			c-0.28,0-0.5-0.22-0.5-0.5v-2c0-0.28,0.22-0.5,0.5-0.5c0.28,0,0.5,0.22,0.5,0.5v2C105.16,163.2,104.94,163.43,104.66,163.43z
			 M104.66,158.43c-0.28,0-0.5-0.22-0.5-0.5v-2c0-0.28,0.22-0.5,0.5-0.5c0.28,0,0.5,0.22,0.5,0.5v2
			C105.16,158.2,104.94,158.43,104.66,158.43z M104.66,153.43c-0.28,0-0.5-0.22-0.5-0.5v-2c0-0.28,0.22-0.5,0.5-0.5
			c0.28,0,0.5,0.22,0.5,0.5v2C105.16,153.2,104.94,153.43,104.66,153.43z M104.66,148.43c-0.28,0-0.5-0.22-0.5-0.5v-2
			c0-0.28,0.22-0.5,0.5-0.5c0.28,0,0.5,0.22,0.5,0.5v2C105.16,148.2,104.94,148.43,104.66,148.43z M104.66,143.43
			c-0.28,0-0.5-0.22-0.5-0.5v-2c0-0.28,0.22-0.5,0.5-0.5c0.28,0,0.5,0.22,0.5,0.5v2C105.16,143.2,104.94,143.43,104.66,143.43z
			 M104.66,138.43c-0.28,0-0.5-0.22-0.5-0.5v-0.59h-0.41c-0.28,0-0.5-0.22-0.5-0.5c0-0.28,0.22-0.5,0.5-0.5h1.41v1.59
			C105.16,138.2,104.94,138.43,104.66,138.43z M100.75,137.34h-2c-0.28,0-0.5-0.22-0.5-0.5c0-0.28,0.22-0.5,0.5-0.5h2
			c0.28,0,0.5,0.22,0.5,0.5C101.25,137.12,101.02,137.34,100.75,137.34z"/>
	</g>
	<g>
		<g>
			<path class="st1" d="M82.42,77.28c-0.28,0-0.5-0.22-0.5-0.5v-1c0-0.28,0.22-0.5,0.5-0.5s0.5,0.22,0.5,0.5v1
				C82.92,77.06,82.69,77.28,82.42,77.28z"/>
		</g>
		<g>
			<path class="st1" d="M82.42,73.16c-0.28,0-0.5-0.22-0.5-0.5v-2.08c0-0.28,0.22-0.5,0.5-0.5s0.5,0.22,0.5,0.5v2.08
				C82.92,72.94,82.69,73.16,82.42,73.16z M82.42,67.96c-0.28,0-0.5-0.22-0.5-0.5v-2.08c0-0.28,0.22-0.5,0.5-0.5s0.5,0.22,0.5,0.5
				v2.08C82.92,67.74,82.69,67.96,82.42,67.96z M82.42,62.76c-0.28,0-0.5-0.22-0.5-0.5v-2.08c0-0.28,0.22-0.5,0.5-0.5
				s0.5,0.22,0.5,0.5v2.08C82.92,62.54,82.69,62.76,82.42,62.76z M82.42,57.57c-0.28,0-0.5-0.22-0.5-0.5v-2.08
				c0-0.28,0.22-0.5,0.5-0.5s0.5,0.22,0.5,0.5v2.08C82.92,57.34,82.69,57.57,82.42,57.57z M82.42,52.37c-0.28,0-0.5-0.22-0.5-0.5
				v-2.08c0-0.28,0.22-0.5,0.5-0.5s0.5,0.22,0.5,0.5v2.08C82.92,52.14,82.69,52.37,82.42,52.37z"/>
		</g>
		<g>
			<path class="st1" d="M82.42,47.17c-0.28,0-0.5-0.22-0.5-0.5v-1.5h1.5c0.28,0,0.5,0.22,0.5,0.5c0,0.28-0.22,0.5-0.5,0.5h-0.5v0.5
				C82.92,46.95,82.69,47.17,82.42,47.17z"/>
		</g>
		<g>
			<path class="st1" d="M190.53,46.17h-2.04c-0.28,0-0.5-0.22-0.5-0.5c0-0.28,0.22-0.5,0.5-0.5h2.04c0.28,0,0.5,0.22,0.5,0.5
				C191.03,45.95,190.8,46.17,190.53,46.17z M185.42,46.17h-2.04c-0.28,0-0.5-0.22-0.5-0.5c0-0.28,0.22-0.5,0.5-0.5h2.04
				c0.28,0,0.5,0.22,0.5,0.5C185.92,45.95,185.7,46.17,185.42,46.17z M180.32,46.17h-2.04c-0.28,0-0.5-0.22-0.5-0.5
				c0-0.28,0.22-0.5,0.5-0.5h2.04c0.28,0,0.5,0.22,0.5,0.5C180.82,45.95,180.6,46.17,180.32,46.17z M175.22,46.17h-2.04
				c-0.28,0-0.5-0.22-0.5-0.5c0-0.28,0.22-0.5,0.5-0.5h2.04c0.28,0,0.5,0.22,0.5,0.5C175.72,45.95,175.5,46.17,175.22,46.17z
				 M170.12,46.17h-2.04c-0.28,0-0.5-0.22-0.5-0.5c0-0.28,0.22-0.5,0.5-0.5h2.04c0.28,0,0.5,0.22,0.5,0.5
				C170.62,45.95,170.4,46.17,170.12,46.17z M165.02,46.17h-2.04c-0.28,0-0.5-0.22-0.5-0.5c0-0.28,0.22-0.5,0.5-0.5h2.04
				c0.28,0,0.5,0.22,0.5,0.5C165.52,45.95,165.3,46.17,165.02,46.17z M159.92,46.17h-2.04c-0.28,0-0.5-0.22-0.5-0.5
				c0-0.28,0.22-0.5,0.5-0.5h2.04c0.28,0,0.5,0.22,0.5,0.5C160.42,45.95,160.2,46.17,159.92,46.17z M154.82,46.17h-2.04
				c-0.28,0-0.5-0.22-0.5-0.5c0-0.28,0.22-0.5,0.5-0.5h2.04c0.28,0,0.5,0.22,0.5,0.5C155.32,45.95,155.1,46.17,154.82,46.17z
				 M149.72,46.17h-2.04c-0.28,0-0.5-0.22-0.5-0.5c0-0.28,0.22-0.5,0.5-0.5h2.04c0.28,0,0.5,0.22,0.5,0.5
				C150.22,45.95,150,46.17,149.72,46.17z M144.62,46.17h-2.04c-0.28,0-0.5-0.22-0.5-0.5c0-0.28,0.22-0.5,0.5-0.5h2.04
				c0.28,0,0.5,0.22,0.5,0.5C145.12,45.95,144.9,46.17,144.62,46.17z M139.52,46.17h-2.04c-0.28,0-0.5-0.22-0.5-0.5
				c0-0.28,0.22-0.5,0.5-0.5h2.04c0.28,0,0.5,0.22,0.5,0.5C140.02,45.95,139.8,46.17,139.52,46.17z M134.42,46.17h-2.04
				c-0.28,0-0.5-0.22-0.5-0.5c0-0.28,0.22-0.5,0.5-0.5h2.04c0.28,0,0.5,0.22,0.5,0.5C134.92,45.95,134.7,46.17,134.42,46.17z
				 M129.32,46.17h-2.04c-0.28,0-0.5-0.22-0.5-0.5c0-0.28,0.22-0.5,0.5-0.5h2.04c0.28,0,0.5,0.22,0.5,0.5
				C129.82,45.95,129.6,46.17,129.32,46.17z M124.22,46.17h-2.04c-0.28,0-0.5-0.22-0.5-0.5c0-0.28,0.22-0.5,0.5-0.5h2.04
				c0.28,0,0.5,0.22,0.5,0.5C124.72,45.95,124.5,46.17,124.22,46.17z M119.12,46.17h-2.04c-0.28,0-0.5-0.22-0.5-0.5
				c0-0.28,0.22-0.5,0.5-0.5h2.04c0.28,0,0.5,0.22,0.5,0.5C119.62,45.95,119.4,46.17,119.12,46.17z M114.02,46.17h-2.04
				c-0.28,0-0.5-0.22-0.5-0.5c0-0.28,0.22-0.5,0.5-0.5h2.04c0.28,0,0.5,0.22,0.5,0.5C114.52,45.95,114.29,46.17,114.02,46.17z
				 M108.92,46.17h-2.04c-0.28,0-0.5-0.22-0.5-0.5c0-0.28,0.22-0.5,0.5-0.5h2.04c0.28,0,0.5,0.22,0.5,0.5
				C109.42,45.95,109.2,46.17,108.92,46.17z M103.82,46.17h-2.04c-0.28,0-0.5-0.22-0.5-0.5c0-0.28,0.22-0.5,0.5-0.5h2.04
				c0.28,0,0.5,0.22,0.5,0.5C104.32,45.95,104.09,46.17,103.82,46.17z M98.72,46.17h-2.04c-0.28,0-0.5-0.22-0.5-0.5
				c0-0.28,0.22-0.5,0.5-0.5h2.04c0.28,0,0.5,0.22,0.5,0.5C99.22,45.95,98.99,46.17,98.72,46.17z M93.62,46.17h-2.04
				c-0.28,0-0.5-0.22-0.5-0.5c0-0.28,0.22-0.5,0.5-0.5h2.04c0.28,0,0.5,0.22,0.5,0.5C94.12,45.95,93.89,46.17,93.62,46.17z
				 M88.52,46.17h-2.04c-0.28,0-0.5-0.22-0.5-0.5c0-0.28,0.22-0.5,0.5-0.5h2.04c0.28,0,0.5,0.22,0.5,0.5
				C89.02,45.95,88.79,46.17,88.52,46.17z"/>
		</g>
		<g>
			<path class="st1" d="M194.59,47.17c-0.28,0-0.5-0.22-0.5-0.5v-0.5h-0.5c-0.28,0-0.5-0.22-0.5-0.5c0-0.28,0.22-0.5,0.5-0.5h1.5
				v1.5C195.09,46.95,194.86,47.17,194.59,47.17z"/>
		</g>
		<g>
			<path class="st1" d="M194.59,61.62c-0.28,0-0.5-0.22-0.5-0.5v-1.93c0-0.28,0.22-0.5,0.5-0.5c0.28,0,0.5,0.22,0.5,0.5v1.93
				C195.09,61.4,194.86,61.62,194.59,61.62z M194.59,56.8c-0.28,0-0.5-0.22-0.5-0.5v-1.93c0-0.28,0.22-0.5,0.5-0.5
				c0.28,0,0.5,0.22,0.5,0.5v1.93C195.09,56.58,194.86,56.8,194.59,56.8z M194.59,51.99c-0.28,0-0.5-0.22-0.5-0.5v-1.93
				c0-0.28,0.22-0.5,0.5-0.5c0.28,0,0.5,0.22,0.5,0.5v1.93C195.09,51.76,194.86,51.99,194.59,51.99z"/>
		</g>
		<g>
			<path class="st1" d="M194.59,65.51c-0.28,0-0.5-0.22-0.5-0.5v-1c0-0.28,0.22-0.5,0.5-0.5c0.28,0,0.5,0.22,0.5,0.5v1
				C195.09,65.29,194.86,65.51,194.59,65.51z"/>
		</g>
	</g>
	<g>
		<g>
			<path class="st1" d="M157.77,46.17c-0.28,0-0.5-0.22-0.5-0.5v-1c0-0.28,0.22-0.5,0.5-0.5s0.5,0.22,0.5,0.5v1
				C158.27,45.95,158.04,46.17,157.77,46.17z"/>
		</g>
		<g>
			<path class="st1" d="M157.77,42.68c-0.28,0-0.5-0.22-0.5-0.5v-1.66c0-0.28,0.22-0.5,0.5-0.5s0.5,0.22,0.5,0.5v1.66
				C158.27,42.46,158.04,42.68,157.77,42.68z M157.77,38.54c-0.28,0-0.5-0.22-0.5-0.5v-1.66c0-0.28,0.22-0.5,0.5-0.5
				s0.5,0.22,0.5,0.5v1.66C158.27,38.31,158.04,38.54,157.77,38.54z"/>
		</g>
		<g>
			<path class="st1" d="M157.77,34.4c-0.28,0-0.5-0.22-0.5-0.5v-1c0-0.28,0.22-0.5,0.5-0.5s0.5,0.22,0.5,0.5v1
				C158.27,34.17,158.04,34.4,157.77,34.4z"/>
		</g>
	</g>
	<g>
		<g>
			<path class="st1" d="M153.49,60.4h-4.9v-4.9h4.9V60.4z M149.6,59.4h2.9v-2.9h-2.9V59.4z"/>
		</g>
		<rect x="156.35" y="56" class="st1" width="3.9" height="3.9"/>
	</g>
	<g>
		<g>
			<path class="st1" d="M274.93,294.25h-4.9v-4.9h4.9V294.25z M271.04,293.25h2.9v-2.9h-2.9V293.25z"/>
		</g>
		<rect x="277.79" y="289.85" class="st1" width="3.9" height="3.9"/>
		<rect x="284.55" y="289.85" class="st1" width="3.9" height="3.9"/>
	</g>
	<path class="st1" d="M106.36,129.91c0,0.94-0.76,1.7-1.7,1.7s-1.7-0.76-1.7-1.7c0-0.94,0.76-1.7,1.7-1.7
		S106.36,128.97,106.36,129.91z"/>
	<g>
		<path class="st1" d="M104.66,126.55c-1.21,0-2.2-0.99-2.2-2.2c0-1.21,0.99-2.2,2.2-2.2c1.21,0,2.2,0.99,2.2,2.2
			C106.86,125.56,105.87,126.55,104.66,126.55z M104.66,123.15c-0.66,0-1.2,0.54-1.2,1.2c0,0.66,0.54,1.2,1.2,1.2
			c0.66,0,1.2-0.54,1.2-1.2C105.86,123.69,105.32,123.15,104.66,123.15z"/>
	</g>
	<g>
		<polygon class="st1" points="114.23,176.03 103.63,169.91 103.63,182.15 		"/>
		<polygon class="st1" points="102.59,176.03 91.99,169.91 91.99,182.15 		"/>
	</g>
	<g>
		<polygon class="st1" points="94.29,199.78 87.2,195.69 87.2,203.87 		"/>
		<rect x="80.79" y="197.59" class="st1" width="7.52" height="4.39"/>
	</g>
	<g>
		<path class="st1" d="M106.07,233.79c-0.28,0-0.5-0.22-0.5-0.5v-2c0-0.28,0.22-0.5,0.5-0.5c0.28,0,0.5,0.22,0.5,0.5v2
			C106.57,233.56,106.34,233.79,106.07,233.79z M106.07,228.79c-0.28,0-0.5-0.22-0.5-0.5v-2c0-0.28,0.22-0.5,0.5-0.5
			c0.28,0,0.5,0.22,0.5,0.5v2C106.57,228.56,106.34,228.79,106.07,228.79z M106.07,223.79c-0.28,0-0.5-0.22-0.5-0.5v-2
			c0-0.28,0.22-0.5,0.5-0.5c0.28,0,0.5,0.22,0.5,0.5v2C106.57,223.56,106.34,223.79,106.07,223.79z M106.07,218.79
			c-0.28,0-0.5-0.22-0.5-0.5v-2c0-0.28,0.22-0.5,0.5-0.5c0.28,0,0.5,0.22,0.5,0.5v2C106.57,218.56,106.34,218.79,106.07,218.79z
			 M106.07,213.79c-0.28,0-0.5-0.22-0.5-0.5v-2c0-0.28,0.22-0.5,0.5-0.5c0.28,0,0.5,0.22,0.5,0.5v2
			C106.57,213.56,106.34,213.79,106.07,213.79z M106.07,208.79c-0.28,0-0.5-0.22-0.5-0.5v-2c0-0.28,0.22-0.5,0.5-0.5
			c0.28,0,0.5,0.22,0.5,0.5v2C106.57,208.56,106.34,208.79,106.07,208.79z M106.07,203.79c-0.28,0-0.5-0.22-0.5-0.5v-2
			c0-0.28,0.22-0.5,0.5-0.5c0.28,0,0.5,0.22,0.5,0.5v2C106.57,203.56,106.34,203.79,106.07,203.79z M129.56,200.28h-2
			c-0.28,0-0.5-0.22-0.5-0.5c0-0.28,0.22-0.5,0.5-0.5h2c0.28,0,0.5,0.22,0.5,0.5C130.06,200.06,129.84,200.28,129.56,200.28z
			 M124.56,200.28h-2c-0.28,0-0.5-0.22-0.5-0.5c0-0.28,0.22-0.5,0.5-0.5h2c0.28,0,0.5,0.22,0.5,0.5
			C125.06,200.06,124.84,200.28,124.56,200.28z M119.56,200.28h-2c-0.28,0-0.5-0.22-0.5-0.5c0-0.28,0.22-0.5,0.5-0.5h2
			c0.28,0,0.5,0.22,0.5,0.5C120.06,200.06,119.84,200.28,119.56,200.28z M114.56,200.28h-2c-0.28,0-0.5-0.22-0.5-0.5
			c0-0.28,0.22-0.5,0.5-0.5h2c0.28,0,0.5,0.22,0.5,0.5C115.06,200.06,114.84,200.28,114.56,200.28z M109.56,200.28h-2
			c-0.28,0-0.5-0.22-0.5-0.5c0-0.28,0.22-0.5,0.5-0.5h2c0.28,0,0.5,0.22,0.5,0.5C110.06,200.06,109.84,200.28,109.56,200.28z"/>
	</g>
	<circle class="st21" cx="227.11" cy="72.69" r="4.72"/>
	<path class="st1" d="M265.36,259.16h-14.74v2.12h14.74V259.16z M262.3,267.25h-11.68v2.12h11.68V267.25z M265.36,263.2h-14.74v2.12
		h14.74V263.2z M270.04,254.13c-0.2-0.2-0.47-0.31-0.75-0.31h-22.85c-0.28,0-0.55,0.11-0.75,0.31c-0.2,0.2-0.31,0.47-0.31,0.75
		v29.88c0,0.28,0.11,0.55,0.31,0.75c0.2,0.2,0.47,0.31,0.75,0.31h14.99c0.09,0,0.18-0.02,0.27-0.04c0.02-0.01,0.04-0.02,0.07-0.02
		c0.07-0.02,0.14-0.06,0.21-0.1c0.02-0.01,0.04-0.03,0.07-0.04c0.08-0.06,0.16-0.12,0.22-0.2l7.86-9.92
		c0.07-0.09,0.12-0.18,0.16-0.29c0.01-0.03,0.02-0.07,0.03-0.11c0.02-0.07,0.03-0.14,0.04-0.22c0-0.02,0.01-0.03,0.01-0.05v-19.95
		C270.35,254.6,270.24,254.33,270.04,254.13z M262.49,281.71v-5.82h4.61L262.49,281.71z M268.23,273.78h-6.8
		c-0.28,0-0.55,0.11-0.75,0.31c-0.2,0.2-0.31,0.47-0.31,0.75v8.86H247.5v-27.76h20.73V273.78z"/>
	<g>
		<g>
			<path class="st1" d="M257.87,251.98c-0.28,0-0.5-0.22-0.5-0.5v-1c0-0.28,0.22-0.5,0.5-0.5c0.28,0,0.5,0.22,0.5,0.5v1
				C258.37,251.75,258.14,251.98,257.87,251.98z"/>
		</g>
		<g>
			<path class="st1" d="M257.87,247.96c-0.28,0-0.5-0.22-0.5-0.5v-2.01c0-0.28,0.22-0.5,0.5-0.5c0.28,0,0.5,0.22,0.5,0.5v2.01
				C258.37,247.74,258.14,247.96,257.87,247.96z M257.87,242.94c-0.28,0-0.5-0.22-0.5-0.5v-2.01c0-0.28,0.22-0.5,0.5-0.5
				c0.28,0,0.5,0.22,0.5,0.5v2.01C258.37,242.72,258.14,242.94,257.87,242.94z M257.87,237.92c-0.28,0-0.5-0.22-0.5-0.5v-2.01
				c0-0.28,0.22-0.5,0.5-0.5c0.28,0,0.5,0.22,0.5,0.5v2.01C258.37,237.7,258.14,237.92,257.87,237.92z"/>
		</g>
		<g>
			<path class="st1" d="M257.87,232.9c-0.28,0-0.5-0.22-0.5-0.5v-0.5h-0.5c-0.28,0-0.5-0.22-0.5-0.5c0-0.28,0.22-0.5,0.5-0.5h1.5
				v1.5C258.37,232.67,258.14,232.9,257.87,232.9z"/>
		</g>
		<g>
			<path class="st1" d="M253.81,231.9h-2.04c-0.28,0-0.5-0.22-0.5-0.5c0-0.28,0.22-0.5,0.5-0.5h2.04c0.28,0,0.5,0.22,0.5,0.5
				C254.31,231.67,254.08,231.9,253.81,231.9z M248.71,231.9h-2.04c-0.28,0-0.5-0.22-0.5-0.5c0-0.28,0.22-0.5,0.5-0.5h2.04
				c0.28,0,0.5,0.22,0.5,0.5C249.21,231.67,248.98,231.9,248.71,231.9z M243.61,231.9h-2.04c-0.28,0-0.5-0.22-0.5-0.5
				c0-0.28,0.22-0.5,0.5-0.5h2.04c0.28,0,0.5,0.22,0.5,0.5C244.11,231.67,243.88,231.9,243.61,231.9z"/>
		</g>
		<g>
			<path class="st1" d="M238.51,231.9h-1c-0.28,0-0.5-0.22-0.5-0.5c0-0.28,0.22-0.5,0.5-0.5h1c0.28,0,0.5,0.22,0.5,0.5
				C239.01,231.67,238.78,231.9,238.51,231.9z"/>
		</g>
	</g>
	<g>
		<path class="st1" d="M326.35,182.5v8.62c0,0.82,0.67,1.49,1.49,1.49h12.51c0.82,0,1.49-0.67,1.49-1.49v-8.62
			c0-0.82-0.67-1.49-1.49-1.49h-12.51C327.02,181.01,326.35,181.67,326.35,182.5z"/>
		<path class="st1" d="M330.25,184.42v-5.53c0-1.07,0.43-2.02,1.13-2.73c0.7-0.7,1.66-1.13,2.73-1.13c1.07,0,2.02,0.43,2.73,1.13
			c0.7,0.7,1.13,1.66,1.13,2.73v5.53h2.24v-5.53c0-3.37-2.73-6.09-6.09-6.09c-3.37,0-6.09,2.73-6.09,6.09v5.53H330.25L330.25,184.42
			z"/>
	</g>
	<g>
		<g>
			<path class="st1" d="M294.38,135.85c-0.28,0-0.5-0.22-0.5-0.5v-1c0-0.28,0.22-0.5,0.5-0.5c0.28,0,0.5,0.22,0.5,0.5v1
				C294.88,135.63,294.66,135.85,294.38,135.85z"/>
		</g>
		<g>
			<path class="st1" d="M294.38,146.82c-0.28,0-0.5-0.22-0.5-0.5v-2.19c0-0.28,0.22-0.5,0.5-0.5c0.28,0,0.5,0.22,0.5,0.5v2.19
				C294.88,146.6,294.66,146.82,294.38,146.82z M294.38,141.34c-0.28,0-0.5-0.22-0.5-0.5v-2.19c0-0.28,0.22-0.5,0.5-0.5
				c0.28,0,0.5,0.22,0.5,0.5v2.19C294.88,141.11,294.66,141.34,294.38,141.34z"/>
		</g>
		<g>
			<path class="st1" d="M295.38,151.12h-1.5v-1.5c0-0.28,0.22-0.5,0.5-0.5c0.28,0,0.5,0.22,0.5,0.5v0.5h0.5c0.28,0,0.5,0.22,0.5,0.5
				S295.66,151.12,295.38,151.12z"/>
		</g>
		<g>
			<path class="st1" d="M313.79,151.12h-1.84c-0.28,0-0.5-0.22-0.5-0.5s0.22-0.5,0.5-0.5h1.84c0.28,0,0.5,0.22,0.5,0.5
				S314.07,151.12,313.79,151.12z M309.19,151.12h-1.84c-0.28,0-0.5-0.22-0.5-0.5s0.22-0.5,0.5-0.5h1.84c0.28,0,0.5,0.22,0.5,0.5
				S309.47,151.12,309.19,151.12z M304.59,151.12h-1.84c-0.28,0-0.5-0.22-0.5-0.5s0.22-0.5,0.5-0.5h1.84c0.28,0,0.5,0.22,0.5,0.5
				S304.86,151.12,304.59,151.12z M299.98,151.12h-1.84c-0.28,0-0.5-0.22-0.5-0.5s0.22-0.5,0.5-0.5h1.84c0.28,0,0.5,0.22,0.5,0.5
				S300.26,151.12,299.98,151.12z"/>
		</g>
		<g>
			<path class="st1" d="M317.55,151.12h-1c-0.28,0-0.5-0.22-0.5-0.5s0.22-0.5,0.5-0.5h1c0.28,0,0.5,0.22,0.5,0.5
				S317.83,151.12,317.55,151.12z"/>
		</g>
	</g>
	<g>
		<g>
			<path class="st1" d="M322.83,187.29h-1c-0.28,0-0.5-0.22-0.5-0.5c0-0.28,0.22-0.5,0.5-0.5h1c0.28,0,0.5,0.22,0.5,0.5
				C323.33,187.07,323.11,187.29,322.83,187.29z"/>
		</g>
		<g>
			<path class="st1" d="M318.74,187.29h-2.06c-0.28,0-0.5-0.22-0.5-0.5c0-0.28,0.22-0.5,0.5-0.5h2.06c0.28,0,0.5,0.22,0.5,0.5
				C319.24,187.07,319.02,187.29,318.74,187.29z M313.6,187.29h-2.06c-0.28,0-0.5-0.22-0.5-0.5c0-0.28,0.22-0.5,0.5-0.5h2.06
				c0.28,0,0.5,0.22,0.5,0.5C314.1,187.07,313.88,187.29,313.6,187.29z M308.46,187.29h-2.06c-0.28,0-0.5-0.22-0.5-0.5
				c0-0.28,0.22-0.5,0.5-0.5h2.06c0.28,0,0.5,0.22,0.5,0.5C308.96,187.07,308.73,187.29,308.46,187.29z M303.31,187.29h-2.06
				c-0.28,0-0.5-0.22-0.5-0.5c0-0.28,0.22-0.5,0.5-0.5h2.06c0.28,0,0.5,0.22,0.5,0.5C303.81,187.07,303.59,187.29,303.31,187.29z
				 M298.17,187.29h-2.06c-0.28,0-0.5-0.22-0.5-0.5c0-0.28,0.22-0.5,0.5-0.5h2.06c0.28,0,0.5,0.22,0.5,0.5
				C298.67,187.07,298.45,187.29,298.17,187.29z M293.03,187.29h-2.06c-0.28,0-0.5-0.22-0.5-0.5c0-0.28,0.22-0.5,0.5-0.5h2.06
				c0.28,0,0.5,0.22,0.5,0.5C293.53,187.07,293.3,187.29,293.03,187.29z M287.88,187.29h-2.06c-0.28,0-0.5-0.22-0.5-0.5
				c0-0.28,0.22-0.5,0.5-0.5h2.06c0.28,0,0.5,0.22,0.5,0.5C288.38,187.07,288.16,187.29,287.88,187.29z M282.74,187.29h-2.06
				c-0.28,0-0.5-0.22-0.5-0.5c0-0.28,0.22-0.5,0.5-0.5h2.06c0.28,0,0.5,0.22,0.5,0.5C283.24,187.07,283.01,187.29,282.74,187.29z"/>
		</g>
		<g>
			<path class="st1" d="M277.59,187.29h-1c-0.28,0-0.5-0.22-0.5-0.5c0-0.28,0.22-0.5,0.5-0.5h1c0.28,0,0.5,0.22,0.5,0.5
				C278.09,187.07,277.87,187.29,277.59,187.29z"/>
		</g>
	</g>
	<g>
		<path class="st1" d="M88.52,27.41c0,6.05-6.1,13.44-6.1,13.44s-6.1-7.39-6.1-13.44c0-3.37,2.73-6.1,6.1-6.1
			C85.79,21.31,88.52,24.04,88.52,27.41z"/>
		<path class="st6" d="M85.64,27.41c0,1.78-1.44,3.23-3.23,3.23c-1.78,0-3.23-1.44-3.23-3.23c0-1.78,1.44-3.23,3.23-3.23
			C84.2,24.18,85.64,25.63,85.64,27.41z"/>
	</g>
	<path class="st1" d="M101.45,68.91c-1.08,0-1.95,0.87-1.95,1.95c0,1.08,0.87,1.95,1.95,1.95c1.08,0,1.95-0.87,1.95-1.95
		C103.4,69.78,102.52,68.91,101.45,68.91z M96.89,66.1l1.71,1.79c0.74-0.71,1.73-1.14,2.84-1.14c1.11,0,2.1,0.43,2.84,1.14L106,66.1
		c-1.18-1.13-2.79-1.83-4.55-1.83C99.68,64.27,98.08,64.97,96.89,66.1z M101.45,53.83c-4.57,0-8.71,1.8-11.77,4.73l1.72,1.79
		c2.61-2.5,6.15-4.04,10.05-4.04c3.9,0,7.44,1.54,10.05,4.04l1.72-1.79C110.16,55.64,106.01,53.83,101.45,53.83z M93.34,62.38
		l1.71,1.79c1.67-1.59,3.91-2.58,6.4-2.58c2.49,0,4.73,0.98,6.4,2.58l1.71-1.79c-2.11-2.02-4.96-3.27-8.11-3.27
		C98.3,59.11,95.44,60.36,93.34,62.38z"/>
	<path class="st1" d="M308.88,21.19L296.88,9.97c-0.51-0.48-1.31-0.48-1.83,0l-12.02,11.22c-0.27,0.25-0.42,0.6-0.42,0.98v15.25
		c0,0.35,0.14,0.7,0.39,0.95c0.25,0.25,0.59,0.39,0.95,0.39h8.27c0,0,0,0,0,0c0.74,0,1.34-0.6,1.34-1.34h0v-9.21h4.81v9.21
		c0,0.74,0.6,1.34,1.34,1.34c0,0,0,0,0,0h8.27c0.35,0,0.7-0.14,0.95-0.39c0.25-0.25,0.39-0.59,0.39-0.95V22.17
		C309.31,21.8,309.16,21.45,308.88,21.19z M306.63,36.08h-5.6l0-9.21c0-0.35-0.14-0.7-0.39-0.95c-0.25-0.25-0.59-0.39-0.95-0.39
		h-7.48c-0.35,0-0.7,0.14-0.95,0.39c-0.25,0.25-0.39,0.59-0.39,0.95v9.21h-5.6V22.75l10.68-9.97l10.67,9.97V36.08z"/>
	<g>
		<g>
			<path class="st1" d="M278.8,27.91h-1c-0.28,0-0.5-0.22-0.5-0.5c0-0.28,0.22-0.5,0.5-0.5h1c0.28,0,0.5,0.22,0.5,0.5
				C279.3,27.69,279.08,27.91,278.8,27.91z"/>
		</g>
		<g>
			<path class="st1" d="M274.54,27.91h-2.18c-0.28,0-0.5-0.22-0.5-0.5c0-0.28,0.22-0.5,0.5-0.5h2.18c0.28,0,0.5,0.22,0.5,0.5
				C275.04,27.69,274.81,27.91,274.54,27.91z M269.1,27.91h-2.18c-0.28,0-0.5-0.22-0.5-0.5c0-0.28,0.22-0.5,0.5-0.5h2.18
				c0.28,0,0.5,0.22,0.5,0.5C269.6,27.69,269.37,27.91,269.1,27.91z M263.66,27.91h-2.18c-0.28,0-0.5-0.22-0.5-0.5
				c0-0.28,0.22-0.5,0.5-0.5h2.18c0.28,0,0.5,0.22,0.5,0.5C264.16,27.69,263.93,27.91,263.66,27.91z"/>
		</g>
		<g>
			<path class="st1" d="M257.21,28.91c-0.28,0-0.5-0.22-0.5-0.5v-1.5h1.5c0.28,0,0.5,0.22,0.5,0.5c0,0.28-0.22,0.5-0.5,0.5h-0.5v0.5
				C257.71,28.69,257.49,28.91,257.21,28.91z"/>
		</g>
		<g>
			<path class="st1" d="M257.21,39.54c-0.28,0-0.5-0.22-0.5-0.5v-2.13c0-0.28,0.22-0.5,0.5-0.5c0.28,0,0.5,0.22,0.5,0.5v2.13
				C257.71,39.31,257.49,39.54,257.21,39.54z M257.21,34.22c-0.28,0-0.5-0.22-0.5-0.5V31.6c0-0.28,0.22-0.5,0.5-0.5
				c0.28,0,0.5,0.22,0.5,0.5v2.13C257.71,34,257.49,34.22,257.21,34.22z"/>
		</g>
		<g>
			<path class="st1" d="M257.21,43.72c-0.28,0-0.5-0.22-0.5-0.5v-1c0-0.28,0.22-0.5,0.5-0.5c0.28,0,0.5,0.22,0.5,0.5v1
				C257.71,43.5,257.49,43.72,257.21,43.72z"/>
		</g>
	</g>
	<path class="st1" d="M144.51,67.73h-19.04c-1.53,0-2.78,1.24-2.78,2.78v12.01c0,1.53,1.24,2.78,2.78,2.78h11.84l3.6,3.6v-3.6h3.6
		c1.53,0,2.78-1.24,2.78-2.78V70.51C147.29,68.98,146.05,67.73,144.51,67.73z M128.66,77.89c-0.76,0-1.38-0.62-1.38-1.38
		c0-0.76,0.62-1.38,1.38-1.38c0.76,0,1.38,0.62,1.38,1.38C130.04,77.28,129.42,77.89,128.66,77.89z M134.99,77.89
		c-0.76,0-1.38-0.62-1.38-1.38c0-0.76,0.62-1.38,1.38-1.38c0.76,0,1.38,0.62,1.38,1.38C136.37,77.28,135.76,77.89,134.99,77.89z
		 M141.33,77.89c-0.76,0-1.38-0.62-1.38-1.38c0-0.76,0.62-1.38,1.38-1.38c0.76,0,1.38,0.62,1.38,1.38
		C142.71,77.28,142.09,77.89,141.33,77.89z"/>
	<path class="st1" d="M62.05,160.37c-5.26,0-9.54,4.28-9.54,9.54c0,5.26,4.28,9.54,9.54,9.54c5.26,0,9.54-4.28,9.54-9.54
		C71.59,164.65,67.31,160.37,62.05,160.37z M67.62,174.2l-0.81,0.78l-0.24,0.2c0,0-1.1,1.47-4.79-0.78c0,0-4.39-2.89-5.41-6.72
		c0,0-0.27-1.5,0.32-2.38l0.24-0.24l0.78-0.83c0.35-0.21,0.72,0.13,0.72,0.13l1.39,1.42c1.23,1.04,0.78,1.31,0.78,1.31l-0.83,0.8
		l-0.24,0.24c0,0-0.48,0.43,0.38,1.42c0,0,1.74,2.04,2.52,2.44c0,0,1.04,0.91,1.42,0.48l0.21-0.26l0.75-0.81
		c0.34-0.21,0.7,0.13,0.7,0.13l1.35,1.38C68.06,173.94,67.62,174.2,67.62,174.2z"/>
	<g>
		<path class="st13" d="M289,145.46c0,8.19-8.96,14.83-20.02,14.83c-11.06,0-20.02-6.64-20.02-14.83c0-8.19,8.96-21.95,20.02-21.95
			C280.04,123.52,289,137.27,289,145.46z"/>
		<path class="st7" d="M273.83,125.45h-9.69c-0.86,0-1.56-0.7-1.56-1.56l0,0c0-0.86,0.7-1.56,1.56-1.56h9.69
			c0.86,0,1.56,0.7,1.56,1.56l0,0C275.39,124.76,274.69,125.45,273.83,125.45z"/>
		<polygon class="st13" points="278.27,115.22 259.7,115.22 264.74,122.89 273.22,122.89 		"/>
		<g>
			<path class="st7" d="M268.16,147.44v-4.91c-1.53-0.44-2.65-1.1-3.37-1.99c-0.71-0.89-1.07-1.96-1.07-3.23
				c0-1.28,0.4-2.36,1.21-3.23c0.81-0.87,1.88-1.37,3.23-1.51v-1.16h1.7v1.16c1.24,0.15,2.23,0.57,2.96,1.27
				c0.73,0.7,1.2,1.63,1.41,2.81l-2.96,0.39c-0.18-0.92-0.65-1.55-1.41-1.87v4.58c1.87,0.51,3.15,1.17,3.83,1.97
				c0.68,0.81,1.02,1.85,1.02,3.11c0,1.41-0.43,2.6-1.28,3.57c-0.86,0.97-2.04,1.56-3.57,1.78v2.19h-1.7v-2.13
				c-1.35-0.16-2.45-0.67-3.29-1.51c-0.84-0.84-1.38-2.03-1.62-3.57l3.06-0.33c0.13,0.62,0.36,1.16,0.7,1.62
				C267.36,146.91,267.74,147.24,268.16,147.44z M268.16,135.14c-0.46,0.16-0.83,0.42-1.1,0.8c-0.27,0.37-0.41,0.79-0.41,1.24
				c0,0.41,0.13,0.8,0.37,1.15c0.25,0.36,0.63,0.64,1.14,0.86V135.14z M269.86,147.6c0.59-0.11,1.06-0.38,1.43-0.81
				s0.55-0.94,0.55-1.53c0-0.52-0.15-0.97-0.46-1.35c-0.31-0.38-0.81-0.67-1.52-0.87V147.6z"/>
		</g>
	</g>
	<g id="XMLID_2_">
		<g>
			<path class="st24" d="M273.43,104.49c2.44,0,4.42,1.98,4.42,4.42c0,2.44-1.98,4.42-4.42,4.42c-2.44,0-4.42-1.98-4.42-4.42
				C269.01,106.47,270.99,104.49,273.43,104.49z M277.21,108.91c0-2.09-1.69-3.78-3.78-3.78c-2.09,0-3.78,1.69-3.78,3.78
				c0,2.09,1.69,3.78,3.78,3.78C275.52,112.69,277.21,111,277.21,108.91z"/>
			<path class="st14" d="M273.43,105.13c2.09,0,3.78,1.69,3.78,3.78c0,2.09-1.69,3.78-3.78,3.78c-2.09,0-3.78-1.69-3.78-3.78
				C269.65,106.82,271.34,105.13,273.43,105.13z M276.94,108.91c0-1.94-1.57-3.51-3.51-3.51c-1.94,0-3.51,1.57-3.51,3.51
				c0,1.94,1.57,3.51,3.51,3.51C275.37,112.42,276.94,110.85,276.94,108.91z"/>
			<path class="st24" d="M273.43,105.4c1.94,0,3.51,1.57,3.51,3.51c0,1.94-1.57,3.51-3.51,3.51c-1.94,0-3.51-1.57-3.51-3.51
				C269.92,106.97,271.49,105.4,273.43,105.4z M276.46,108.91c0-1.67-1.36-3.03-3.03-3.03c-1.67,0-3.03,1.36-3.03,3.03
				s1.36,3.03,3.03,3.03C275.1,111.94,276.46,110.58,276.46,108.91z"/>
			<path class="st14" d="M273.43,105.88c1.67,0,3.03,1.36,3.03,3.03s-1.36,3.03-3.03,3.03c-1.67,0-3.03-1.36-3.03-3.03
				S271.75,105.88,273.43,105.88z"/>
		</g>
	</g>
	<g>
		<path class="st24" d="M273.95,107.47c0.37,0.14,0.54,0.45,0.54,0.9v0.07h-0.46c0-0.25-0.06-0.43-0.19-0.54l-0.2,0.82
			c0.58,0.09,0.88,0.31,0.88,0.79v0.04c0,0.54-0.39,0.88-1.08,0.88c-0.07,0-0.14,0-0.21-0.01l-0.12,0.51h-0.37l0.14-0.6
			c-0.37-0.15-0.57-0.47-0.57-0.89v-0.03h0.46c0,0.22,0.07,0.38,0.21,0.49l0.21-0.87c-0.59-0.1-0.84-0.35-0.84-0.77v-0.04
			c0-0.53,0.43-0.85,1.07-0.85c0.06,0,0.12,0,0.17,0.01l0.12-0.51h0.37L273.95,107.47z M273.29,108.67l0.21-0.89
			c-0.02,0-0.05,0-0.07,0h-0.02c-0.33,0-0.58,0.16-0.58,0.43v0.02C272.83,108.46,272.94,108.6,273.29,108.67z M274.06,109.57v-0.02
			c0-0.26-0.15-0.39-0.49-0.46l-0.23,0.94c0.04,0,0.07,0,0.11,0h0.02C273.81,110.04,274.06,109.87,274.06,109.57z"/>
	</g>
	<g id="XMLID_3_">
		<g>
			<path class="st24" d="M261.3,96.92c2.44,0,4.42,1.98,4.42,4.42c0,2.44-1.98,4.42-4.42,4.42c-2.44,0-4.42-1.98-4.42-4.42
				C256.88,98.9,258.86,96.92,261.3,96.92z M265.08,101.34c0-2.09-1.69-3.78-3.78-3.78c-2.09,0-3.78,1.69-3.78,3.78
				c0,2.09,1.69,3.78,3.78,3.78C263.39,105.12,265.08,103.42,265.08,101.34z"/>
			<path class="st14" d="M261.3,97.56c2.09,0,3.78,1.69,3.78,3.78c0,2.09-1.69,3.78-3.78,3.78c-2.09,0-3.78-1.69-3.78-3.78
				C257.52,99.25,259.21,97.56,261.3,97.56z M264.81,101.34c0-1.94-1.57-3.51-3.51-3.51s-3.51,1.57-3.51,3.51
				c0,1.94,1.57,3.51,3.51,3.51S264.81,103.28,264.81,101.34z"/>
			<path class="st24" d="M261.3,97.83c1.94,0,3.51,1.57,3.51,3.51c0,1.94-1.57,3.51-3.51,3.51s-3.51-1.57-3.51-3.51
				C257.79,99.4,259.36,97.83,261.3,97.83z M264.33,101.34c0-1.67-1.36-3.03-3.03-3.03s-3.03,1.36-3.03,3.03s1.36,3.03,3.03,3.03
				S264.33,103.01,264.33,101.34z"/>
			<path class="st14" d="M261.3,98.31c1.67,0,3.03,1.36,3.03,3.03s-1.36,3.03-3.03,3.03s-3.03-1.36-3.03-3.03
				S259.63,98.31,261.3,98.31z"/>
		</g>
	</g>
	<g>
		<path class="st24" d="M261.82,99.9c0.37,0.14,0.54,0.45,0.54,0.9v0.07h-0.46c0-0.25-0.06-0.43-0.19-0.54l-0.2,0.82
			c0.58,0.09,0.88,0.32,0.88,0.79v0.04c0,0.54-0.39,0.88-1.08,0.88c-0.07,0-0.14,0-0.21-0.01l-0.12,0.51h-0.37l0.14-0.6
			c-0.37-0.15-0.57-0.47-0.57-0.89v-0.03h0.46c0,0.22,0.07,0.38,0.21,0.49l0.21-0.87c-0.59-0.1-0.84-0.35-0.84-0.77v-0.04
			c0-0.53,0.43-0.85,1.07-0.85c0.06,0,0.12,0,0.17,0.01l0.12-0.51h0.37L261.82,99.9z M261.16,101.1l0.21-0.89c-0.02,0-0.05,0-0.07,0
			h-0.02c-0.33,0-0.58,0.16-0.58,0.43v0.02C260.7,100.89,260.82,101.03,261.16,101.1z M261.93,102v-0.02c0-0.26-0.15-0.39-0.49-0.46
			l-0.22,0.94c0.04,0,0.07,0,0.11,0h0.02C261.68,102.47,261.93,102.3,261.93,102z"/>
	</g>
	<g id="XMLID_5_">
		<g>
			<path class="st24" d="M268.72,90.9c1.63,0,2.95,1.32,2.95,2.95c0,1.63-1.32,2.95-2.95,2.95c-1.63,0-2.95-1.32-2.95-2.95
				C265.77,92.22,267.09,90.9,268.72,90.9z M271.25,93.85c0-1.39-1.13-2.53-2.53-2.53c-1.39,0-2.53,1.13-2.53,2.53
				c0,1.39,1.13,2.53,2.53,2.53C270.12,96.37,271.25,95.24,271.25,93.85z"/>
			<path class="st14" d="M268.72,91.32c1.39,0,2.53,1.13,2.53,2.53c0,1.39-1.13,2.53-2.53,2.53c-1.39,0-2.53-1.13-2.53-2.53
				C266.2,92.45,267.33,91.32,268.72,91.32z M271.07,93.85c0-1.3-1.05-2.35-2.35-2.35c-1.3,0-2.35,1.05-2.35,2.35
				s1.05,2.35,2.35,2.35C270.02,96.19,271.07,95.14,271.07,93.85z"/>
			<path class="st24" d="M268.72,91.5c1.3,0,2.35,1.05,2.35,2.35s-1.05,2.35-2.35,2.35c-1.3,0-2.35-1.05-2.35-2.35
				S267.43,91.5,268.72,91.5z M270.75,93.85c0-1.12-0.91-2.02-2.02-2.02c-1.12,0-2.02,0.91-2.02,2.02c0,1.12,0.91,2.02,2.02,2.02
				C269.84,95.87,270.75,94.97,270.75,93.85z"/>
			<path class="st14" d="M268.72,91.82c1.12,0,2.02,0.91,2.02,2.02c0,1.12-0.91,2.02-2.02,2.02c-1.12,0-2.02-0.91-2.02-2.02
				C266.7,92.73,267.6,91.82,268.72,91.82z"/>
		</g>
	</g>
	<g>
		<path class="st24" d="M269.07,92.89c0.25,0.09,0.36,0.3,0.36,0.6v0.05h-0.31c0-0.17-0.04-0.29-0.13-0.36l-0.13,0.55
			c0.38,0.06,0.59,0.21,0.59,0.53v0.02c0,0.36-0.26,0.59-0.72,0.59c-0.05,0-0.09,0-0.14-0.01l-0.08,0.34h-0.25l0.1-0.4
			c-0.25-0.1-0.38-0.31-0.38-0.59v-0.02h0.31c0,0.14,0.05,0.26,0.14,0.32l0.14-0.58c-0.4-0.07-0.56-0.23-0.56-0.51V93.4
			c0-0.35,0.29-0.57,0.71-0.57c0.04,0,0.08,0,0.11,0.01l0.08-0.34h0.25L269.07,92.89z M268.63,93.69l0.14-0.6c-0.01,0-0.03,0-0.05,0
			h-0.01c-0.22,0-0.39,0.11-0.39,0.29v0.01C268.32,93.55,268.4,93.64,268.63,93.69z M269.14,94.29v-0.02c0-0.17-0.1-0.26-0.33-0.31
			l-0.15,0.63c0.02,0,0.05,0,0.07,0h0.01C268.98,94.61,269.14,94.49,269.14,94.29z"/>
	</g>
</g>
</svg>
